<?xml version="1.0" encoding="UTF-8" standalone="no"?>
<svg
   xmlns:dc="http://purl.org/dc/elements/1.1/"
   xmlns:cc="http://creativecommons.org/ns#"
   xmlns:rdf="http://www.w3.org/1999/02/22-rdf-syntax-ns#"
   xmlns:svg="http://www.w3.org/2000/svg"
   xmlns="http://www.w3.org/2000/svg"
   xmlns:xlink="http://www.w3.org/1999/xlink"
   xmlns:sodipodi="http://sodipodi.sourceforge.net/DTD/sodipodi-0.dtd"
   xmlns:inkscape="http://www.inkscape.org/namespaces/inkscape"
   id="Layer_1"
   data-name="Layer 1"
   viewBox="0 0 500 500"
   version="1.1"
   sodipodi:docname="icon.svg"
   width="500"
   height="500"
   inkscape:version="1.0.2-2 (e86c870879, 2021-01-15)">
  <metadata
     id="metadata125">
    <rdf:RDF>
      <cc:Work
         rdf:about="">
        <dc:format>image/svg+xml</dc:format>
        <dc:type
           rdf:resource="http://purl.org/dc/dcmitype/StillImage" />
        <dc:title>ship</dc:title>
      </cc:Work>
    </rdf:RDF>
  </metadata>
  <animateMotion
     xlink:href="#pi-bote"
     dur="2s"
     begin="0.1s"
     fill="freeze"
     path="M0,0 v-4 v4"
     repeatCount="indefinite" />
  <sodipodi:namedview
     pagecolor="#ffffff"
     bordercolor="#666666"
     borderopacity="1"
     objecttolerance="10"
     gridtolerance="10"
     guidetolerance="10"
     inkscape:pageopacity="0"
     inkscape:pageshadow="2"
     inkscape:window-width="1366"
     inkscape:window-height="741"
     id="namedview123"
     showgrid="false"
     fit-margin-top="0"
     fit-margin-left="0"
     fit-margin-right="0"
     fit-margin-bottom="0"
     inkscape:zoom="0.73625"
     inkscape:cx="92.858139"
     inkscape:cy="209.6667"
     inkscape:window-x="-9"
     inkscape:window-y="-9"
     inkscape:window-maximized="1"
     inkscape:current-layer="g359"
     inkscape:document-rotation="0" />
  <defs
     id="defs4">
    <rect
       x="52.279461"
       y="-0.66405111"
       width="137.76016"
       height="29.501711"
       id="rect170" />
    <style
       id="style2">.cls-1{fill:#e8f4fa;}.cls-11,.cls-2{fill:#ff6242;}.cls-10,.cls-15,.cls-19,.cls-2,.cls-21,.cls-22,.cls-3,.cls-6{stroke:#45413c;}.cls-10,.cls-15,.cls-19,.cls-2,.cls-21,.cls-22,.cls-24,.cls-3,.cls-6{stroke-linecap:round;stroke-linejoin:round;}.cls-3,.cls-4{fill:#6dd627;}.cls-5{fill:#9ceb60;}.cls-24,.cls-6{fill:none;}.cls-7{fill:#adc4d9;}.cls-8{fill:#f0f0f0;}.cls-19,.cls-9{fill:#fff;}.cls-10,.cls-13{fill:#ffe500;}.cls-12,.cls-15{fill:#ff866e;}.cls-14{fill:#fff48c;}.cls-16{fill:#ffa694;}.cls-17{fill:#00b8f0;}.cls-18{fill:#4acfff;}.cls-20{fill:#c0dceb;}.cls-21{fill:#daedf7;}.cls-22{fill:#ffaa54;}.cls-23{fill:#4aeff7;}.cls-24{stroke:#a6fbff;}</style>
  </defs>
  <title
     id="title6">ship</title>
  <text
     xml:space="preserve"
     style="font-style:normal;font-variant:normal;font-weight:normal;font-stretch:normal;font-size:7.60237px;line-height:1.25;font-family:Impact;-inkscape-font-specification:Impact;font-variant-ligatures:normal;font-variant-caps:normal;font-variant-numeric:normal;font-feature-settings:normal;text-align:center;letter-spacing:0px;word-spacing:0px;writing-mode:lr-tb;text-anchor:middle;fill:#000000;fill-opacity:1;stroke:none;stroke-width:0.158383"
     x="24.555052"
     y="-4.4590154"
     id="text144"><tspan
       sodipodi:role="line"
       id="tspan142"
       x="24.555052"
       y="-4.4590154"
       style="stroke-width:0.158383" /></text>
  <g
     inkscape:groupmode="layer"
     id="layer6"
     inkscape:label="Layer 1"
     transform="translate(-8.49343,-7.5065889)"
     style="display:inline">
    <g
       id="g376"
       transform="matrix(0.91920266,0,0,0.91920266,34.002674,11.089211)"
       style="display:inline">
      <g
         id="g162"
         style="display:inline"
         transform="translate(94.057725,7.8098467)">
        <g
           id="g170"
           transform="translate(-4.0747011,-2.37691)" />
      </g>
      <g
         inkscape:groupmode="layer"
         id="layer10"
         inkscape:label="Layer 2"
         style="display:inline">
        <g
           id="g1182"
           transform="translate(1.1082143,5.9104907)">
          <g
             id="g166"
             transform="matrix(5.7598882,0,0,5.7598882,149.25623,52.388621)">
            <g
               id="g957"
               transform="matrix(0.68056855,0,0,0.68056855,-29.137977,-140.20916)"
               style="fill:#000000">
              <flowRoot
                 xml:space="preserve"
                 id="flowRoot860"
                 style="font-style:normal;font-variant:normal;font-weight:normal;font-stretch:normal;font-size:48px;line-height:1.25;font-family:Ubuntu;-inkscape-font-specification:Ubuntu;font-variant-ligatures:normal;font-variant-caps:normal;font-variant-numeric:normal;font-feature-settings:normal;text-align:center;letter-spacing:0px;word-spacing:0px;writing-mode:lr-tb;text-anchor:middle;fill:#000000;fill-opacity:1;stroke:none"
                 transform="matrix(0.26458333,0,0,0.26458333,0.0622728,146.48094)"><flowRegion
                   id="flowRegion862"
                   style="font-style:normal;font-variant:normal;font-weight:normal;font-stretch:normal;font-family:Ubuntu;-inkscape-font-specification:Ubuntu;fill:#000000"><rect
                     id="rect864"
                     width="461.63971"
                     height="235.36554"
                     x="22.223356"
                     y="191.90347"
                     style="font-style:normal;font-variant:normal;font-weight:normal;font-stretch:normal;font-family:Ubuntu;-inkscape-font-specification:Ubuntu;fill:#000000" /></flowRegion><flowPara
                   id="flowPara866" /></flowRoot>
              <g
                 aria-label="SHIPPING "
                 style="font-style:normal;font-variant:normal;font-weight:normal;font-stretch:normal;font-size:28.0234px;line-height:1.25;font-family:Impact;-inkscape-font-specification:Impact;font-variant-ligatures:normal;font-variant-caps:normal;font-variant-numeric:normal;font-feature-settings:normal;text-align:center;letter-spacing:0px;word-spacing:0px;writing-mode:lr-tb;text-anchor:middle;fill:#000000;fill-opacity:1;stroke:none;stroke-width:0.58382"
                 id="text874"
                 transform="translate(0.37694457,-6.4080577)">
                <path
                   d="M 27.628631,206.20204 H 22.278468 V 204.56005 Q 22.278468,203.41065 22.073219,203.09594 21.86797,202.78122 21.389055,202.78122 20.86909,202.78122 20.595424,203.2054 20.335442,203.62958 20.335442,204.49163 20.335442,205.59998 20.636474,206.16099 20.923823,206.72201 22.264785,207.51564 26.109787,209.80074 27.108667,211.26486 28.107546,212.72897 28.107546,215.98559 28.107546,218.3528 27.546532,219.47483 26.9992,220.59685 25.41194,221.36312 23.824679,222.1157 21.717454,222.1157 19.404979,222.1157 17.762985,221.23997 16.134675,220.36424 15.628393,219.00959 15.122112,217.65495 15.122112,215.16459 V 213.71416 H 20.472275 V 216.40977 Q 20.472275,217.65495 20.691207,218.01071 20.923823,218.36648 21.498521,218.36648 22.073219,218.36648 22.346885,217.91493 22.634233,217.46338 22.634233,216.57397 22.634233,214.61726 22.100585,214.0152 21.553254,213.41313 19.404979,212.00375 17.256704,210.58069 16.558856,209.93758 15.861009,209.29446 15.395777,208.15875 14.944229,207.02304 14.944229,205.2579 14.944229,202.7128 15.587343,201.53604 16.244141,200.35928 17.694569,199.70248 19.144997,199.032 21.197489,199.032 23.441547,199.032 25.015124,199.75722 26.602385,200.48243 27.108667,201.59078 27.628631,202.68544 27.628631,205.32631 Z"
                   style="fill:#000000;stroke-width:0.58382"
                   id="path880"
                   inkscape:connector-curvature="0" />
                <path
                   d="M 43.17284,199.49723 V 221.65047 H 37.412178 V 212.34584 H 35.688085 V 221.65047 H 29.927423 V 199.49723 H 35.688085 V 207.41985 H 37.412178 V 199.49723 Z"
                   style="fill:#000000;stroke-width:0.58382"
                   id="path882"
                   inkscape:connector-curvature="0" />
                <path
                   d="M 51.232294,199.49723 V 221.65047 H 45.471633 V 199.49723 Z"
                   style="fill:#000000;stroke-width:0.58382"
                   id="path884"
                   inkscape:connector-curvature="0" />
                <path
                   d="M 53.572135,199.49723 H 59.373846 Q 61.727371,199.49723 62.986232,199.86668 64.258778,200.23613 64.888209,200.93398 65.531323,201.63183 65.750255,202.63071 65.982871,203.6159 65.982871,205.69576 V 207.6251 Q 65.982871,209.74601 65.545006,210.71752 65.107141,211.68904 63.930379,212.209 62.7673,212.72897 60.879007,212.72897 H 59.332796 V 221.65047 H 53.572135 Z M 59.332796,203.2875 V 208.92501 Q 59.579095,208.93871 59.756978,208.93871 60.550608,208.93871 60.85164,208.55558 61.166356,208.15876 61.166356,206.92727 V 205.10739 Q 61.166356,203.97168 60.810591,203.62959 60.454825,203.28751 59.332796,203.28751 Z"
                   style="fill:#000000;stroke-width:0.58382"
                   id="path886"
                   inkscape:connector-curvature="0" />
                <path
                   d="M 67.638548,199.49723 H 73.44026 Q 75.793784,199.49723 77.052646,199.86668 78.325192,200.23613 78.954623,200.93398 79.597737,201.63183 79.816669,202.63071 80.049285,203.6159 80.049285,205.69576 V 207.6251 Q 80.049285,209.74601 79.61142,210.71752 79.173555,211.68904 77.996793,212.209 76.833714,212.72897 74.945421,212.72897 H 73.39921 V 221.65047 H 67.638548 Z M 73.39921,203.2875 V 208.92501 Q 73.645509,208.93871 73.823392,208.93871 74.617022,208.93871 74.918054,208.55558 75.23277,208.15876 75.23277,206.92727 V 205.10739 Q 75.23277,203.97168 74.877005,203.62959 74.521239,203.28751 73.39921,203.28751 Z"
                   style="fill:#000000;stroke-width:0.58382"
                   id="path888"
                   inkscape:connector-curvature="0" />
                <path
                   d="M 87.46562,199.49723 V 221.65047 H 81.704958 V 199.49723 Z"
                   style="fill:#000000;stroke-width:0.58382"
                   id="path890"
                   inkscape:connector-curvature="0" />
                <path
                   d="M 102.66775,199.49723 V 221.65047 H 97.618622 L 94.621983,211.57957 V 221.65047 H 89.805468 V 199.49723 H 94.621983 L 97.851238,209.47235 V 199.49723 Z"
                   style="fill:#000000;stroke-width:0.58382"
                   id="path892"
                   inkscape:connector-curvature="0" />
                <path
                   d="M 118.18459,207.65247 H 112.42393 V 205.64103 Q 112.42393,203.73905 112.25973,203.26014 112.09553,202.78122 111.47978,202.78122 110.94613,202.78122 110.75457,203.19172 110.563,203.60222 110.563,205.29895 V 215.93086 Q 110.563,217.42233 110.75457,217.90125 110.94613,218.36648 111.52083,218.36648 112.15026,218.36648 112.3692,217.83283 112.60181,217.29918 112.60181,215.75297 V 213.12578 H 111.43873 V 209.7597 H 118.18459 V 221.65047 H 114.55852 L 114.02487,220.06321 Q 113.43649,221.08945 112.53339,221.60942 111.64398,222.1157 110.42617,222.1157 108.97574,222.1157 107.7032,221.41785 106.44433,220.70632 105.78754,219.66639 105.13074,218.62646 104.96654,217.49075 104.80234,216.34135 104.80234,214.05625 V 207.47459 Q 104.80234,204.30007 105.14442,202.86332 105.4865,201.42658 107.10113,200.23613 108.72944,199.032 111.3019,199.032 113.83331,199.032 115.50267,200.07193 117.17203,201.11186 117.67831,202.54861 118.18459,203.97167 118.18459,206.69464 Z"
                   style="fill:#000000;stroke-width:0.58382"
                   id="path894"
                   inkscape:connector-curvature="0" />
              </g>
              <g
                 aria-label="CALCULATOR"
                 style="font-style:normal;font-variant:normal;font-weight:normal;font-stretch:normal;font-size:21.1117px;line-height:1.25;font-family:Impact;-inkscape-font-specification:Impact;font-variant-ligatures:normal;font-variant-caps:normal;font-variant-numeric:normal;font-feature-settings:normal;text-align:center;letter-spacing:0px;word-spacing:0px;writing-mode:lr-tb;text-anchor:middle;fill:#000000;fill-opacity:1;stroke:none;stroke-width:0.439828"
                 id="text878"
                 transform="translate(-1.1308375,78.40447)">
                <path
                   d="M 26.197128,235.25809 H 21.857263 V 232.3511 Q 21.857263,231.08316 21.712945,230.77391 21.578935,230.45435 21.104745,230.45435 20.568705,230.45435 20.424386,230.83576 20.280068,231.21717 20.280068,232.48511 V 240.23708 Q 20.280068,241.45348 20.424386,241.82459 20.568705,242.19569 21.07382,242.19569 21.558318,242.19569 21.702636,241.82459 21.857263,241.45348 21.857263,240.08246 V 237.98984 H 26.197128 V 238.63927 Q 26.197128,241.2267 25.826024,242.30908 25.465227,243.39147 24.207594,244.20584 22.96027,245.02021 21.125362,245.02021 19.218296,245.02021 17.98128,244.32954 16.744263,243.63888 16.342233,242.42248 15.940203,241.19577 15.940203,238.74235 V 233.86645 Q 15.940203,232.06247 16.063905,231.16563 16.187606,230.25849 16.795806,229.4235 17.414314,228.58851 18.496703,228.11432 19.589401,227.62983 21.001661,227.62983 22.919036,227.62983 24.16636,228.37204 25.413685,229.11425 25.805407,230.22756 26.197128,231.33057 26.197128,233.67059 Z"
                   style="fill:#000000;stroke-width:0.439828"
                   id="path897"
                   inkscape:connector-curvature="0" />
                <path
                   d="M 35.26858,227.98031 37.752921,244.66972 H 33.309971 L 33.093494,241.66996 H 31.536915 L 31.279203,244.66972 H 26.784711 L 28.990723,227.98031 Z M 32.969792,238.71143 Q 32.639921,235.8766 32.31005,231.71198 31.650308,236.49511 31.485373,238.71143 Z"
                   style="fill:#000000;stroke-width:0.439828"
                   id="path899"
                   inkscape:connector-curvature="0" />
                <path
                   d="M 42.834994,227.98031 V 241.32978 H 45.473962 V 244.66972 H 38.495129 V 227.98031 Z"
                   style="fill:#000000;stroke-width:0.439828"
                   id="path901"
                   inkscape:connector-curvature="0" />
                <path
                   d="M 56.339089,235.25809 H 51.999224 V 232.3511 Q 51.999224,231.08316 51.854905,230.77391 51.720895,230.45435 51.246705,230.45435 50.710665,230.45435 50.566347,230.83576 50.422028,231.21717 50.422028,232.48511 V 240.23708 Q 50.422028,241.45348 50.566347,241.82459 50.710665,242.19569 51.21578,242.19569 51.700278,242.19569 51.844597,241.82459 51.999224,241.45348 51.999224,240.08246 V 237.98984 H 56.339089 V 238.63927 Q 56.339089,241.2267 55.967984,242.30908 55.607187,243.39147 54.349554,244.20584 53.10223,245.02021 51.267322,245.02021 49.360256,245.02021 48.12324,244.32954 46.886224,243.63888 46.484193,242.42248 46.082163,241.19577 46.082163,238.74235 V 233.86645 Q 46.082163,232.06247 46.205865,231.16563 46.329566,230.25849 46.937766,229.4235 47.556274,228.58851 48.638663,228.11432 49.731361,227.62983 51.143621,227.62983 53.060996,227.62983 54.30832,228.37204 55.555645,229.11425 55.947367,230.22756 56.339089,231.33057 56.339089,233.67059 Z"
                   style="fill:#000000;stroke-width:0.439828"
                   id="path903"
                   inkscape:connector-curvature="0" />
                <path
                   d="M 67.781487,227.98031 V 239.13408 Q 67.781487,241.03083 67.657785,241.80397 67.534084,242.5668 66.925884,243.38117 66.317685,244.18523 65.317763,244.60787 64.32815,245.02021 62.977741,245.02021 61.483013,245.02021 60.338773,244.5254 59.194533,244.0306 58.627568,243.23685 58.060602,242.44309 57.957517,241.56687 57.854433,240.68035 57.854433,237.85583 V 227.98031 H 62.194298 V 240.49479 Q 62.194298,241.58749 62.307691,241.89675 62.431392,242.19569 62.792189,242.19569 63.204527,242.19569 63.317921,241.86582 63.441622,241.52564 63.441622,240.27832 V 227.98031 Z"
                   style="fill:#000000;stroke-width:0.439828"
                   id="path905"
                   inkscape:connector-curvature="0" />
                <path
                   d="M 73.801631,227.98031 V 241.32978 H 76.440599 V 244.66972 H 69.461766 V 227.98031 Z"
                   style="fill:#000000;stroke-width:0.439828"
                   id="path907"
                   inkscape:connector-curvature="0" />
                <path
                   d="M 85.532667,227.98031 88.017008,244.66972 H 83.574058 L 83.35758,241.66996 H 81.801002 L 81.54329,244.66972 H 77.048798 L 79.25481,227.98031 Z M 83.233879,238.71143 Q 82.904008,235.8766 82.574137,231.71198 81.914395,236.49511 81.749459,238.71143 Z"
                   style="fill:#000000;stroke-width:0.439828"
                   id="path909"
                   inkscape:connector-curvature="0" />
                <path
                   d="M 96.346249,227.98031 V 231.32026 H 93.769132 V 244.66972 H 89.429267 V 231.32026 H 86.862459 V 227.98031 Z"
                   style="fill:#000000;stroke-width:0.439828"
                   id="path911"
                   inkscape:connector-curvature="0" />
                <path
                   d="M 107.25261,237.75274 Q 107.25261,240.26801 107.12891,241.31947 107.01551,242.36063 106.3867,243.22654 105.76819,244.09245 104.70642,244.55633 103.64464,245.02021 102.23238,245.02021 100.89228,245.02021 99.820203,244.58726 98.758431,244.14399 98.108997,243.26777 97.459564,242.39155 97.335862,241.36071 97.21216,240.32986 97.21216,237.75274 V 234.8973 Q 97.21216,232.38203 97.325553,231.34087 97.449255,230.28941 98.067763,229.4235 98.69658,228.55759 99.758352,228.09371 100.82012,227.62983 102.23238,227.62983 103.57248,227.62983 104.63426,228.07309 105.70634,228.50605 106.35577,229.38227 107.0052,230.25849 107.12891,231.28933 107.25261,232.32018 107.25261,234.8973 Z M 102.91274,232.26864 Q 102.91274,231.10378 102.77873,230.78422 102.65503,230.45435 102.253,230.45435 101.91282,230.45435 101.72727,230.72237 101.55203,230.98008 101.55203,232.26864 V 240.06184 Q 101.55203,241.51533 101.66542,241.85551 101.78912,242.19569 102.22208,242.19569 102.66534,242.19569 102.78904,241.80397 102.91274,241.41225 102.91274,239.93814 Z"
                   style="fill:#000000;stroke-width:0.439828"
                   id="path913"
                   inkscape:connector-curvature="0" />
                <path
                   d="M 108.88135,227.98031 H 111.95327 Q 115.0252,227.98031 116.10758,228.21741 117.20028,228.4545 117.88064,229.43381 118.57131,230.4028 118.57131,232.53666 118.57131,234.48496 118.08681,235.15501 117.60231,235.82506 116.17974,235.95907 117.4683,236.27863 117.91157,236.81467 118.35483,237.35071 118.45791,237.80428 118.57131,238.24755 118.57131,240.26801 V 244.66972 H 114.5407 V 239.12377 Q 114.5407,237.78367 114.32422,237.4641 114.11805,237.14454 113.22121,237.14454 V 244.66972 H 108.88135 Z M 113.22121,230.83576 V 234.54681 Q 113.95311,234.54681 114.24175,234.35095 114.5407,234.14478 114.5407,233.04177 V 232.12432 Q 114.5407,231.33057 114.25206,231.08316 113.97373,230.83576 113.22121,230.83576 Z"
                   style="fill:#000000;stroke-width:0.439828"
                   id="path915"
                   inkscape:connector-curvature="0" />
              </g>
            </g>
            <g
               id="g359"
               transform="translate(0.88111726,-19.051288)">
              <g
                 id="pi-bote"
                 transform="matrix(0.8332512,0,0,0.8332512,81.583346,61.765349)"
                 style="display:inline">
                <g
                   id="g655"
                   transform="translate(-126.66994,-63.256903)">
                  <path
                     class="cls-6"
                     d="M 69.53,68 H 26.07 A 1,1 0 0 1 25.21,67.51 L 22.21,62.51 A 37.26,37.26 0 0 0 19.61,58.73 L 16.8,55.16 A 1,1 0 0 1 17.59,53.54 H 34.37 A 2.06,2.06 0 0 1 35.52,53.9 L 40,57 H 80 V 61.76 A 2,2 0 0 1 78.89,63.55 L 70.42,67.79 A 2,2 0 0 1 69.53,68 Z"
                     id="path86" />
                  <path
                     class="cls-2"
                     d="M 70.37,67.79 77.94,64 H 40 L 34.75,60.57 A 2,2 0 0 0 33.66,60.25 H 20.66 C 21.17,60.98 21.66,61.71 22.12,62.47 L 25.12,67.47 A 1,1 0 0 0 26,68 H 69.47 A 2,2 0 0 0 70.37,67.79 Z"
                     id="path104" />
                </g>
                <rect
                   class="cls-2"
                   x="-94.169937"
                   y="-9.7569027"
                   width="7.5"
                   height="3.5"
                   id="rect10" />
                <rect
                   class="cls-3"
                   x="-94.169937"
                   y="-13.256903"
                   width="7.5"
                   height="3.5"
                   id="rect12" />
                <path
                   class="cls-4"
                   d="M -93.66994,-16.756903 H -87.16994 A 0.5,0.5 0 0 1 -86.66994,-16.256903 V -13.256903 H -94.16994 V -16.256903 A 0.5,0.5 0 0 1 -93.66994,-16.756903 Z"
                   id="path14" />
                <path
                   class="cls-5"
                   d="M -87.16994,-16.756903 H -93.66994 A 0.5,0.5 0 0 0 -94.16994,-16.256903 V -14.256903 A 0.5,0.5 0 0 1 -93.66994,-14.756903 H -87.16994 A 0.5,0.5 0 0 1 -86.66994,-14.256903 V -16.256903 A 0.5,0.5 0 0 0 -87.16994,-16.756903 Z"
                   id="path16" />
                <path
                   class="cls-6"
                   d="M -93.66994,-16.756903 H -87.16994 A 0.5,0.5 0 0 1 -86.66994,-16.256903 V -13.256903 H -94.16994 V -16.256903 A 0.5,0.5 0 0 1 -93.66994,-16.756903 Z"
                   id="path18" />
                <path
                   class="cls-7"
                   d="M -56.63994,4.743097 H -100.09994 A 1,1 0 0 1 -100.95994,4.253097 L -103.95994,-0.746903 A 37.26,37.26 0 0 0 -106.55994,-4.526903 L -109.36994,-8.096903 A 1,1 0 0 1 -108.57994,-9.716903 H -91.79994 A 2.06,2.06 0 0 1 -90.64994,-9.356903 L -86.16994,-6.256903 H -46.16994 V -1.496903 A 2,2 0 0 1 -47.27994,0.293097 L -55.74994,4.533097 A 2,2 0 0 1 -56.63994,4.743097 Z"
                   id="path20" />
                <path
                   class="cls-8"
                   d="M -55.66994,-6.256903 H -67.66994 V -24.256903 H -58.66994 A 1,1 0 0 1 -57.89994,-23.896903 L -55.66994,-21.256903 Z"
                   id="path22" />
                <path
                   class="cls-9"
                   d="M -57.86994,-23.896903 A 1,1 0 0 0 -58.63994,-24.256903 H -67.63994 V -21.256903 H -58.63994 A 1,1 0 0 1 -57.86994,-20.896903 L -55.66994,-18.256903 V -21.256903 Z"
                   id="path24" />
                <path
                   class="cls-6"
                   d="M -55.66994,-6.256903 H -67.66994 V -24.256903 H -58.66994 A 1,1 0 0 1 -57.89994,-23.896903 L -55.66994,-21.256903 Z"
                   id="path26" />
                <rect
                   class="cls-3"
                   x="-55.669941"
                   y="-9.7569027"
                   width="7.5"
                   height="3.5"
                   id="rect28" />
                <rect
                   class="cls-2"
                   x="-55.669941"
                   y="-13.256903"
                   width="7.5"
                   height="3.5"
                   id="rect30" />
                <rect
                   class="cls-10"
                   x="-55.669941"
                   y="-16.756903"
                   width="7.5"
                   height="3.5"
                   id="rect32" />
                <path
                   class="cls-11"
                   d="M -55.66994,-20.256903 H -48.66994 A 0.5,0.5 0 0 1 -48.16994,-19.756903 V -16.756903 H -55.66994 Z"
                   id="path34" />
                <path
                   class="cls-12"
                   d="M -48.66994,-20.256903 H -55.66994 V -18.256903 H -48.66994 A 0.5,0.5 0 0 1 -48.16994,-17.756903 V -19.756903 A 0.5,0.5 0 0 0 -48.66994,-20.256903 Z"
                   id="path36" />
                <path
                   class="cls-6"
                   d="M -55.66994,-20.256903 H -48.66994 A 0.5,0.5 0 0 1 -48.16994,-19.756903 V -16.756903 H -55.66994 Z"
                   id="path38" />
                <rect
                   class="cls-10"
                   x="-77.169937"
                   y="-9.7569027"
                   width="7.5"
                   height="3.5"
                   id="rect40" />
                <rect
                   class="cls-3"
                   x="-77.169937"
                   y="-13.256903"
                   width="7.5"
                   height="3.5"
                   id="rect42" />
                <rect
                   class="cls-3"
                   x="-77.169937"
                   y="-16.756903"
                   width="7.5"
                   height="3.5"
                   id="rect44" />
                <path
                   class="cls-11"
                   d="M -76.66994,-20.256903 H -70.16994 A 0.5,0.5 0 0 1 -69.66994,-19.756903 V -16.756903 H -77.16994 V -19.756903 A 0.5,0.5 0 0 1 -76.66994,-20.256903 Z"
                   id="path46" />
                <path
                   class="cls-12"
                   d="M -70.16994,-20.256903 H -76.66994 A 0.5,0.5 0 0 0 -77.16994,-19.756903 V -17.756903 A 0.5,0.5 0 0 1 -76.66994,-18.256903 H -70.16994 A 0.5,0.5 0 0 1 -69.66994,-17.756903 V -19.756903 A 0.5,0.5 0 0 0 -70.16994,-20.256903 Z"
                   id="path48" />
                <path
                   class="cls-6"
                   d="M -76.66994,-20.256903 H -70.16994 A 0.5,0.5 0 0 1 -69.66994,-19.756903 V -16.756903 H -77.16994 V -19.756903 A 0.5,0.5 0 0 1 -76.66994,-20.256903 Z"
                   id="path50" />
                <rect
                   class="cls-3"
                   x="-84.669937"
                   y="-9.7569027"
                   width="7.5"
                   height="3.5"
                   id="rect52" />
                <rect
                   class="cls-2"
                   x="-84.669937"
                   y="-13.256903"
                   width="7.5"
                   height="3.5"
                   id="rect54" />
                <path
                   class="cls-13"
                   d="M -84.16994,-16.756903 H -77.16994 V -13.256903 H -84.66994 V -16.256903 A 0.5,0.5 0 0 1 -84.16994,-16.756903 Z"
                   id="path56" />
                <path
                   class="cls-14"
                   d="M -84.16994,-16.756903 A 0.5,0.5 0 0 0 -84.66994,-16.256903 V -14.256903 A 0.5,0.5 0 0 1 -84.16994,-14.756903 H -77.16994 V -16.756903 Z"
                   id="path58" />
                <path
                   class="cls-6"
                   d="M -84.16994,-16.756903 H -77.16994 V -13.256903 H -84.66994 V -16.256903 A 0.5,0.5 0 0 1 -84.16994,-16.756903 Z"
                   id="path60" />
                <rect
                   class="cls-15"
                   x="-100.16994"
                   y="-16.256903"
                   width="2"
                   height="6.5"
                   id="rect62" />
                <path
                   class="cls-12"
                   d="M -48.16994,-18.256903 H -47.16994 A 1,1 0 0 1 -46.16994,-17.256903 V -6.256903 H -48.16994 Z"
                   id="path64" />
                <path
                   class="cls-16"
                   d="M -47.16994,-18.256903 H -48.16994 V -15.756903 H -47.16994 A 1,1 0 0 1 -46.16994,-14.756903 V -17.256903 A 1,1 0 0 0 -47.16994,-18.256903 Z"
                   id="path66" />
                <path
                   class="cls-15"
                   d="M -98.16994,-9.756903 V -13.256903 H -97.07994 A 1,1 0 0 1 -96.37994,-12.966903 L -93.16994,-9.756903 Z"
                   id="path68" />
                <path
                   class="cls-15"
                   d="M -98.16994,-18.256903 H -100.16994 A 1,1 0 0 0 -101.16994,-17.256903 V -17.256903 A 1,1 0 0 0 -100.16994,-16.256903 H -98.16994 A 1,1 0 0 0 -97.16994,-17.256903 V -17.256903 A 1,1 0 0 0 -98.16994,-18.256903 Z"
                   id="path70" />
                <rect
                   class="cls-17"
                   x="-69.669937"
                   y="-27.256903"
                   width="10"
                   height="3"
                   id="rect72" />
                <polygon
                   class="cls-18"
                   points="56.5,39 56.5,36 66,36 60.5,39 "
                   id="polygon74"
                   transform="translate(-126.16994,-63.256903)" />
                <rect
                   class="cls-6"
                   x="-69.669937"
                   y="-27.256903"
                   width="10"
                   height="3"
                   id="rect76" />
                <path
                   class="cls-2"
                   d="M -62.73994,-31.756903 H -64.66994 A 1,1 0 0 0 -65.66994,-30.756903 V -29.256903 H -60.66994 L -61.87994,-31.256903 A 1,1 0 0 0 -62.73994,-31.756903 Z"
                   id="path78" />
                <path
                   class="cls-19"
                   d="M -69.66994,-24.256903 H -67.66994 V -22.256903 H -68.66994 A 1,1 0 0 1 -69.66994,-23.256903 Z"
                   id="path80" />
                <path
                   class="cls-19"
                   d="M -68.66994,-29.256903 H -60.66994 A 1,1 0 0 1 -59.66994,-28.256903 V -27.256903 H -69.66994 V -28.256903 A 1,1 0 0 1 -68.66994,-29.256903 Z"
                   id="path82" />
                <path
                   class="cls-20"
                   d="M -86.16994,-6.256903 -90.64994,-9.396903 A 2.06,2.06 0 0 0 -91.79994,-9.756903 H -108.60994 A 1,1 0 0 0 -109.39994,-8.136903 L -109.01994,-7.656903 A 0.92,0.92 0 0 1 -108.60994,-7.756903 H -91.79994 A 2.06,2.06 0 0 1 -90.64994,-7.396903 L -86.16994,-4.256903 H -46.16994 V -6.256903 Z"
                   id="path84" />
                <line
                   class="cls-6"
                   x1="-55.669941"
                   y1="-21.256903"
                   x2="-55.669941"
                   y2="-28.256903"
                   id="line88" />
                <line
                   class="cls-6"
                   x1="-64.669937"
                   y1="-31.756903"
                   x2="-64.669937"
                   y2="-35.256905"
                   id="line90" />
                <line
                   class="cls-6"
                   x1="-101.16994"
                   y1="-17.256903"
                   x2="-108.66994"
                   y2="-9.7569027"
                   id="line92" />
                <polygon
                   class="cls-21"
                   points="70.5,43.5 61,49 61,51.5 70.5,46 "
                   id="polygon94"
                   transform="translate(-126.16994,-63.256903)" />
                <polygon
                   class="cls-21"
                   points="70.5,49 61,54.5 61,57 70.5,51.5 "
                   id="polygon96"
                   transform="translate(-126.16994,-63.256903)" />
                <rect
                   class="cls-22"
                   x="-65.169937"
                   y="-19.756903"
                   width="9.5"
                   height="2.5"
                   id="rect98" />
                <rect
                   class="cls-22"
                   x="-65.169937"
                   y="-14.256903"
                   width="9.5"
                   height="2.5"
                   id="rect100" />
                <rect
                   class="cls-22"
                   x="-65.169937"
                   y="-8.7569027"
                   width="9.5"
                   height="2.5"
                   id="rect102" />
                <line
                   class="cls-6"
                   x1="-66.169937"
                   y1="-27.256903"
                   x2="-66.169937"
                   y2="-24.256903"
                   id="line106" />
                <line
                   class="cls-6"
                   x1="-62.669941"
                   y1="-27.256903"
                   x2="-62.669941"
                   y2="-24.256903"
                   id="line108" />
                <path
                   class="cls-6"
                   d="M -48.16994,-18.256903 H -47.16994 A 1,1 0 0 1 -46.16994,-17.256903 V -6.256903 H -48.16994 Z"
                   id="path120" />
              </g>
              <g
                 id="g922"
                 transform="matrix(0.8332512,0,0,0.8332512,-25.047764,6.5511307)"
                 style="display:inline">
                <path
                   class="cls-23"
                   d="M 79.24,66.1 C 76.8,66.1 76.8,67.66 74.36,67.66 71.92,67.66 71.92,66.1 69.48,66.1 67.04,66.1 67,67.66 64.61,67.66 62.22,67.66 62.17,66.1 59.73,66.1 57.29,66.1 57.29,67.66 54.86,67.66 52.43,67.66 52.42,66.1 50,66.1 47.58,66.1 47.57,67.66 45.13,67.66 42.69,67.66 42.69,66.1 40.26,66.1 37.83,66.1 37.82,67.66 35.38,67.66 32.94,67.66 32.95,66.1 30.51,66.1 28.07,66.1 28.08,67.66 25.64,67.66 23.2,67.66 23.2,66.1 20.77,66.1 18.34,66.1 18.33,67.66 15.89,67.66 A 3.7,3.7 0 0 1 13.89,67.13 40,40 0 0 0 86.19,67.13 3.65,3.65 0 0 1 84.19,67.67 C 81.68,67.66 81.68,66.1 79.24,66.1 Z"
                   id="path110" />
                <path
                   class="cls-24"
                   d="M 24.66,73.56 C 27.1,73.56 27.1,72 29.53,72 31.96,72 31.97,73.56 34.41,73.56 36.85,73.56 36.84,72 39.28,72 41.72,72 41.72,73.56 44.15,73.56 46.58,73.56 46.59,72 49,72 51.41,72 51.44,73.56 53.87,73.56"
                   id="path114" />
                <path
                   class="cls-24"
                   d="M 39.17,82.73 C 41.61,82.73 41.61,81.17 44.04,81.17 46.47,81.17 46.48,82.73 48.91,82.73 51.34,82.73 51.35,81.17 53.79,81.17 56.23,81.17 56.22,82.73 58.66,82.73"
                   id="path116" />
                <path
                   class="cls-24"
                   d="M 74.78,76 C 72.35,76 72.35,77.56 69.91,77.56 67.47,77.56 67.48,76 65,76 62.52,76 62.56,77.56 60.13,77.56"
                   id="path118" />
                <path
                   class="cls-6"
                   d="M 11.714201,67.13 C 14.154201,67.13 14.154201,68.7 16.584201,68.7 19.014201,68.7 19.024201,67.13 21.464201,67.13 23.904201,67.13 23.894201,68.7 26.334201,68.7 28.774201,68.7 28.774201,67.13 31.204201,67.13 33.634201,67.13 33.644201,68.7 36.074201,68.7 38.504201,68.7 38.514201,67.13 40.954201,67.13 43.394201,67.13 43.384201,68.7 45.824201,68.7 48.264201,68.7 48.264201,67.13 50.694201,67.13 53.124201,67.13 53.134201,68.7 55.574201,68.7 58.014201,68.7 58.004201,67.13 60.444201,67.13 62.884201,67.13 62.884201,68.7 65.324201,68.7 67.764201,68.7 67.754201,67.13 70.194201,67.13 72.634201,67.13 72.634201,68.7 75.074201,68.7 77.514201,68.7 77.514201,67.13 79.954201,67.13 82.394201,67.13 82.394201,68.7 84.834201,68.7 87.274201,68.7 87.274201,67.13 89.714201,67.13"
                   id="path112" />
              </g>
            </g>
          </g>
        </g>
      </g>
    </g>
  </g>
</svg>
