<?xml version="1.0" encoding="UTF-8" standalone="no"?>
<!-- Generator: Adobe Illustrator 19.0.0, SVG Export Plug-In . SVG Version: 6.00 Build 0)  -->

<svg
   xmlns:dc="http://purl.org/dc/elements/1.1/"
   xmlns:cc="http://creativecommons.org/ns#"
   xmlns:rdf="http://www.w3.org/1999/02/22-rdf-syntax-ns#"
   xmlns:svg="http://www.w3.org/2000/svg"
   xmlns="http://www.w3.org/2000/svg"
   xmlns:sodipodi="http://sodipodi.sourceforge.net/DTD/sodipodi-0.dtd"
   xmlns:inkscape="http://www.inkscape.org/namespaces/inkscape"
   version="1.1"
   id="Capa_1"
   x="0px"
   y="0px"
   viewBox="0 0 512 272"
   xml:space="preserve"
   sodipodi:docname="truck-svgrepo-com.svg"
   inkscape:version="0.92.4 (5da689c313, 2019-01-14)"
   width="512"
   height="272"><metadata
   id="metadata115"><rdf:RDF><cc:Work
       rdf:about=""><dc:format>image/svg+xml</dc:format><dc:type
         rdf:resource="http://purl.org/dc/dcmitype/StillImage" /><dc:title></dc:title></cc:Work></rdf:RDF></metadata><defs
   id="defs113" /><sodipodi:namedview
   pagecolor="#ffffff"
   bordercolor="#666666"
   borderopacity="1"
   objecttolerance="10"
   gridtolerance="10"
   guidetolerance="10"
   inkscape:pageopacity="0"
   inkscape:pageshadow="2"
   inkscape:window-width="1366"
   inkscape:window-height="741"
   id="namedview111"
   showgrid="false"
   inkscape:zoom="0.4609375"
   inkscape:cx="-31.457627"
   inkscape:cy="136"
   inkscape:window-x="-9"
   inkscape:window-y="-9"
   inkscape:window-maximized="1"
   inkscape:current-layer="Capa_1"
   fit-margin-top="0"
   fit-margin-left="0"
   fit-margin-right="0"
   fit-margin-bottom="0" />
<g
   id="g78"
   transform="matrix(-1,0,0,1,512,-120)">
	<g
   id="g4">
		<path
   style="fill:#5c546a"
   d="M 472,344 H 40 c -8.837,0 -16,-7.163 -16,-16 v -16 h 448 z"
   id="path2"
   inkscape:connector-curvature="0" />
	</g>
	<g
   id="g8">
		<path
   style="fill:#8a8895"
   d="M 168,144 H 48 c -4.422,0 -8,3.582 -8,8 v 96 c 0,4.422 3.578,8 8,8 h 120 c 4.422,0 8,-3.578 8,-8 v -96 c 0,-4.418 -3.578,-8 -8,-8 z"
   id="path6"
   inkscape:connector-curvature="0" />
	</g>
	<g
   id="g12">
		<path
   style="fill:#ffd100"
   d="M 264,120 H 144 c -4.422,0 -8,3.582 -8,8 v 96 c 0,4.422 3.578,8 8,8 h 120 c 4.422,0 8,-3.578 8,-8 v -96 c 0,-4.418 -3.578,-8 -8,-8 z"
   id="path10"
   inkscape:connector-curvature="0" />
	</g>
	<g
   id="g16">
		<path
   style="fill:#e7001e"
   d="m 389.898,314.594 -88,-96 C 300.383,216.938 298.242,216 296,216 H 16 c -8.82,0 -16,7.18 -16,16 v 64 c 0,17.648 14.352,32 32,32 h 352 c 3.172,0 6.047,-1.875 7.32,-4.781 1.282,-2.899 0.719,-6.289 -1.422,-8.625 z"
   id="path14"
   inkscape:connector-curvature="0" />
	</g>
	<g
   id="g20">
		<path
   style="fill:#ff4f19"
   d="M 485.727,216 421.202,203.453 399.759,143.758 C 393.344,129.324 379,120 363.203,120 H 312 c -13.234,0 -24,10.766 -24,24 v 136 c 0,26.469 21.531,48 48,48 h 152 c 13.234,0 24,-10.766 24,-24 v -64 c 0,-15.469 -11.047,-21.227 -26.273,-24 z"
   id="path18"
   inkscape:connector-curvature="0" />
	</g>
	<g
   id="g24">
		<path
   style="fill:#ffd100"
   d="m 512,264 h -28 c -6.627,0 -12,-5.373 -12,-12 v 0 c 0,-6.627 5.373,-12 12,-12 h 28"
   id="path22"
   inkscape:connector-curvature="0" />
	</g>
	<g
   id="g30">
		<g
   id="g28">
			<rect
   x="96"
   y="144"
   style="fill:#5c546a"
   width="16"
   height="72"
   id="rect26" />
		</g>
	</g>
	<g
   id="g36">
		<g
   id="g34">
			<rect
   x="64"
   y="144"
   style="fill:#5c546a"
   width="16"
   height="72"
   id="rect32" />
		</g>
	</g>
	<g
   id="g40">
		<path
   style="fill:#ff4f19"
   d="m 0,288 c 13.255,0 24,-10.745 24,-24 v -24 c 0,-4.418 -3.582,-8 -8,-8 H 0 Z"
   id="path38"
   inkscape:connector-curvature="0" />
	</g>
	<g
   id="g50">
		<g
   id="g44">
			<circle
   style="fill:#5c546a"
   cx="112.001"
   cy="336"
   r="56"
   id="circle42" />
		</g>
		<g
   id="g48">
			<circle
   style="fill:#8a8895"
   cx="112.001"
   cy="336"
   r="32"
   id="circle46" />
		</g>
	</g>
	<g
   id="g60">
		<g
   id="g54">
			<circle
   style="fill:#5c546a"
   cx="432"
   cy="336"
   r="56"
   id="circle52" />
		</g>
		<g
   id="g58">
			<circle
   style="fill:#8a8895"
   cx="432"
   cy="336"
   r="32"
   id="circle56" />
		</g>
	</g>
	<g
   id="g64">
		<path
   style="fill:#5c546a"
   d="m 399.758,143.758 c -1.25,-2.813 -2.879,-5.364 -4.684,-7.758 H 312 v 51.453 c 0,8.836 7.164,16 16,16 h 93.201 z"
   id="path62"
   inkscape:connector-curvature="0" />
	</g>
	<g
   id="g68">
		<rect
   x="496"
   y="240"
   style="fill:#ffffff"
   width="16"
   height="24"
   id="rect66" />
	</g>
	<g
   id="g72">
		<rect
   x="136"
   y="144"
   style="fill:#ff9500"
   width="136"
   height="16"
   id="rect70" />
	</g>
	<g
   id="g76">
		<rect
   x="136"
   y="184"
   style="fill:#ff9500"
   width="136"
   height="16"
   id="rect74" />
	</g>
</g>
<g
   id="g80"
   transform="translate(0,-120)">
</g>
<g
   id="g82"
   transform="translate(0,-120)">
</g>
<g
   id="g84"
   transform="translate(0,-120)">
</g>
<g
   id="g86"
   transform="translate(0,-120)">
</g>
<g
   id="g88"
   transform="translate(0,-120)">
</g>
<g
   id="g90"
   transform="translate(0,-120)">
</g>
<g
   id="g92"
   transform="translate(0,-120)">
</g>
<g
   id="g94"
   transform="translate(0,-120)">
</g>
<g
   id="g96"
   transform="translate(0,-120)">
</g>
<g
   id="g98"
   transform="translate(0,-120)">
</g>
<g
   id="g100"
   transform="translate(0,-120)">
</g>
<g
   id="g102"
   transform="translate(0,-120)">
</g>
<g
   id="g104"
   transform="translate(0,-120)">
</g>
<g
   id="g106"
   transform="translate(0,-120)">
</g>
<g
   id="g108"
   transform="translate(0,-120)">
</g>
</svg>