<svg width="20px" height="17px" viewBox="292 353.964 20 17" xmlns="http://www.w3.org/2000/svg" xmlns:xlink="http://www.w3.org/1999/xlink"><clipPath id="a"><path d="m292 353.964h20v17h-20z"/></clipPath><g clip-path="url(#a)" fill="#fff"><path d="m307 353.964h-10l-.569.968.038.065.361.614.739 1.256 2.155 3.663 1.138-1.934-1.586-2.697h6.586l.569.967 3.293 5.598-2.15 3.656 1.138 1.935 3.288-5.59z"/><path d="m306.431 368.062-3.293-5.598 2.155-3.663-1.138-1.935-2.155 3.664v-.001l-1.138 1.935-2.155 3.664 1.138 1.934 2.155-3.663 2.724 4.631h-6.586l-.569-.968-3.293-5.598 2.155-3.663-1.138-1.935-3.293 5.598 5 8.5h10l.573-.975-1.138-1.934z"/></g></svg>