<?xml version="1.0" encoding="UTF-8"?>
<svg xmlns="http://www.w3.org/2000/svg" width="20" height="19" viewBox="0 0 20 19" fill="none">
  <path d="M8.68646 17.3805L9.06215 17.0505L8.68646 17.3805ZM2.38742 10.2079L2.01173 10.5378L2.38742 10.2079ZM11.3135 17.3805L11.6892 17.7104L11.3135 17.3805ZM9.08649 2.57983L9.46218 2.24989V2.24989L9.08649 2.57983ZM17.6126 10.2079L17.2369 9.87796L17.6126 10.2079ZM10.9135 2.57983L11.2892 2.90976V2.90976L10.9135 2.57983ZM10 3.62002L9.62431 3.94995C9.71924 4.05805 9.85613 4.12002 10 4.12002C10.1439 4.12002 10.2808 4.05805 10.3757 3.94995L10 3.62002ZM9.06215 17.0505L2.76311 9.87796L2.01173 10.5378L8.31077 17.7104L9.06215 17.0505ZM10.9379 17.0505C10.4115 17.6498 9.58846 17.6498 9.06215 17.0505L8.31077 17.7104C9.23535 18.7632 10.7646 18.7632 11.6892 17.7104L10.9379 17.0505ZM2.76311 2.90976C4.41387 1.03008 7.06004 1.03008 8.7108 2.90976L9.46218 2.24989C7.41315 -0.0832965 4.06077 -0.083297 2.01173 2.24989L2.76311 2.90976ZM2.01173 2.24989C-0.00391114 4.54506 -0.0039109 8.24267 2.01173 10.5378L2.76311 9.87796C1.07896 7.96026 1.07896 4.82746 2.76311 2.90976L2.01173 2.24989ZM17.2369 9.87796L10.9379 17.0505L11.6892 17.7104L17.9883 10.5378L17.2369 9.87796ZM17.2369 2.90976C18.921 4.82746 18.921 7.96026 17.2369 9.87796L17.9883 10.5378C20.0039 8.24267 20.0039 4.54506 17.9883 2.24989L17.2369 2.90976ZM11.2892 2.90976C12.94 1.03008 15.5861 1.03008 17.2369 2.90976L17.9883 2.24989C15.9392 -0.0832964 12.5869 -0.0832959 10.5378 2.24989L11.2892 2.90976ZM10.3757 3.94995L11.2892 2.90976L10.5378 2.24989L9.62431 3.29008L10.3757 3.94995ZM8.7108 2.90976L9.62431 3.94995L10.3757 3.29008L9.46218 2.24989L8.7108 2.90976Z" fill="black"></path>
</svg>
