<?xml version="1.0" encoding="UTF-8"?>
<svg xmlns="http://www.w3.org/2000/svg" width="302" height="19" viewBox="0 0 302 19" fill="none">
  <path d="M9.375 4.59668L6.03027 12.2017H12.8052L9.375 4.59668ZM10.6689 0.60498H11.1206L17.981 15.522C18.2007 15.9858 18.4448 16.3683 18.7134 16.6694C18.9901 16.9705 19.2993 17.1903 19.6411 17.3286C19.9829 17.4588 20.3857 17.5239 20.8496 17.5239H21.3013V18H11.4014V17.5239H12.6953C13.3382 17.5239 13.8062 17.4385 14.0991 17.2676C14.4002 17.0885 14.5508 16.8159 14.5508 16.4497C14.5508 16.2218 14.4897 15.9451 14.3677 15.6196C14.2537 15.2941 13.9974 14.7041 13.5986 13.8496C13.5742 13.8008 13.5376 13.7194 13.4888 13.6055C13.4399 13.4915 13.387 13.3817 13.3301 13.2759L13.0493 12.6533H5.82275L5.27344 13.9229C5.0944 14.3542 5.00488 14.7896 5.00488 15.229C5.00488 15.6034 5.10661 15.9736 5.31006 16.3398C5.52165 16.7061 5.79427 16.9827 6.12793 17.1699C6.34766 17.3001 6.54297 17.3896 6.71387 17.4385C6.8929 17.4792 7.14518 17.5076 7.4707 17.5239V18H0.524902V17.5239C1.02946 17.467 1.42822 17.3774 1.72119 17.2554C2.0223 17.1333 2.35596 16.9299 2.72217 16.645C3.5848 15.9777 4.42708 14.7204 5.24902 12.873L10.6689 0.60498Z" fill="#010005"></path>
  <path d="M24.144 0.946777H35.7773V1.39844H34.5444C33.4946 1.39844 32.7174 1.65072 32.2129 2.15527C31.7083 2.65983 31.4561 3.44108 31.4561 4.49902V17.5483H35.875C36.7458 17.5483 37.5677 17.3571 38.3408 16.9746C39.1139 16.584 39.7853 16.0428 40.355 15.3511C40.6968 14.9198 40.9979 14.4925 41.2583 14.0693C41.5187 13.6462 41.7669 13.1335 42.0029 12.5312C42.2389 11.929 42.4709 11.2373 42.6987 10.4561H43.1504V18H24.144L24.1196 17.5483H24.7544C26.8215 17.5483 27.855 16.5067 27.855 14.4233V4.49902C27.855 2.43197 26.8215 1.39844 24.7544 1.39844H24.144V0.946777Z" fill="#010005"></path>
  <path d="M46.2861 0.946777H64.4258V7.55078H64.0596C63.7259 6.39518 63.4248 5.53255 63.1562 4.96289C62.8958 4.38509 62.554 3.83984 62.1309 3.32715C61.6182 2.7168 61.0607 2.28141 60.4585 2.021C59.4575 1.60596 58.2409 1.39844 56.8086 1.39844H53.4517V9.50391H54.355C55.6978 9.50391 56.7638 8.92611 57.5532 7.77051C57.9601 7.17643 58.2612 6.46842 58.4565 5.64648C58.5542 5.29655 58.6437 4.77979 58.7251 4.09619H59.1523V15.2778H58.7251C58.6274 14.6756 58.5094 14.11 58.3711 13.5811C58.2409 13.0439 58.0903 12.6086 57.9194 12.2749C57.7567 11.9412 57.5451 11.6076 57.2847 11.2739C56.5522 10.3706 55.5106 9.91895 54.1597 9.91895H53.4517V17.5483H56.2593C57.0894 17.5483 57.834 17.4914 58.4932 17.3774C59.1605 17.2554 59.7586 17.0723 60.2876 16.8281C60.8166 16.5758 61.313 16.2503 61.7769 15.8516C62.5744 15.1761 63.1929 14.3338 63.6323 13.3247C63.8846 12.7469 64.1491 11.9657 64.4258 10.981H64.8774V18H46.3105L46.2861 17.5483H46.75C48.8171 17.5483 49.8506 16.5067 49.8506 14.4233V4.49902C49.8506 3.44108 49.5983 2.65983 49.0938 2.15527C48.5892 1.65072 47.8079 1.39844 46.75 1.39844H46.2861V0.946777Z" fill="#010005"></path>
  <path d="M68.3672 0.946777H79.4878V1.39844H79.2681C78.6577 1.39844 78.1654 1.49609 77.791 1.69141C77.4248 1.87858 77.2417 2.139 77.2417 2.47266C77.2417 2.65983 77.2987 2.8877 77.4126 3.15625C77.5347 3.41667 77.6934 3.67301 77.8887 3.92529L81.3311 7.90479L84.0166 5.17041C84.6676 4.49495 84.9932 3.8724 84.9932 3.30273C84.9932 2.72493 84.7531 2.26921 84.2729 1.93555C83.7928 1.60189 83.097 1.42285 82.1855 1.39844V0.946777H91.3408V1.39844C90.2585 1.57747 89.3307 1.8623 88.5576 2.25293C87.1416 2.96094 85.8436 3.91715 84.6636 5.12158L81.6118 8.24658L87.2881 14.875C88.0124 15.7132 88.7651 16.3683 89.5464 16.8403C90.3276 17.3123 91.056 17.5483 91.7314 17.5483H92.0366V18H80.6841V17.5483H81.6606C82.3605 17.5483 82.9017 17.4507 83.2842 17.2554C83.6667 17.0519 83.8579 16.7752 83.8579 16.4253C83.8579 16.0428 83.6585 15.6359 83.2598 15.2046L79.3169 10.5781L76.5093 13.4468C76.2244 13.7479 75.9925 14.0205 75.8135 14.2646C75.6344 14.5007 75.5042 14.7326 75.4229 14.9604C75.3496 15.1802 75.313 15.408 75.313 15.644C75.313 16.23 75.5531 16.6938 76.0332 17.0356C76.5215 17.3774 77.1969 17.5483 78.0596 17.5483H78.5601V18H68.3672V17.5483C69.0508 17.4588 69.6204 17.3449 70.0762 17.2065C70.54 17.0601 71.069 16.8485 71.6631 16.5718C73.0628 15.9126 74.3812 14.9727 75.6182 13.752L79.0361 10.2729L73.3843 3.75439C72.0496 2.18376 70.5238 1.39844 68.8066 1.39844H68.3672V0.946777Z" fill="#010005"></path>
  <path d="M103.412 4.59668L100.067 12.2017H106.842L103.412 4.59668ZM104.706 0.60498H105.158L112.018 15.522C112.238 15.9858 112.482 16.3683 112.75 16.6694C113.027 16.9705 113.336 17.1903 113.678 17.3286C114.02 17.4588 114.423 17.5239 114.887 17.5239H115.338V18H105.438V17.5239H106.732C107.375 17.5239 107.843 17.4385 108.136 17.2676C108.437 17.0885 108.588 16.8159 108.588 16.4497C108.588 16.2218 108.527 15.9451 108.405 15.6196C108.291 15.2941 108.035 14.7041 107.636 13.8496C107.611 13.8008 107.575 13.7194 107.526 13.6055C107.477 13.4915 107.424 13.3817 107.367 13.2759L107.086 12.6533H99.8599L99.3105 13.9229C99.1315 14.3542 99.042 14.7896 99.042 15.229C99.042 15.6034 99.1437 15.9736 99.3472 16.3398C99.5588 16.7061 99.8314 16.9827 100.165 17.1699C100.385 17.3001 100.58 17.3896 100.751 17.4385C100.93 17.4792 101.182 17.5076 101.508 17.5239V18H94.562V17.5239C95.0666 17.467 95.4653 17.3774 95.7583 17.2554C96.0594 17.1333 96.3931 16.9299 96.7593 16.645C97.6219 15.9777 98.4642 14.7204 99.2861 12.873L104.706 0.60498Z" fill="#010005"></path>
  <path d="M127.799 17.5239H128.348C129.398 17.5239 130.175 17.2716 130.68 16.7671C131.192 16.2544 131.449 15.4731 131.449 14.4233C131.449 13.8537 131.449 13.3084 131.449 12.7876C131.449 12.2668 131.449 11.4448 131.449 10.3218C131.449 9.23942 131.449 8.03499 131.449 6.7085C131.449 5.37386 131.449 4.49089 131.449 4.05957C131.375 3.53874 131.274 3.12777 131.144 2.82666C131.013 2.51742 130.814 2.257 130.545 2.04541C130.057 1.6141 129.325 1.39844 128.348 1.39844H127.762V0.946777H138.517V1.39844H138.138C137.088 1.39844 136.307 1.65479 135.794 2.16748C135.29 2.67204 135.038 3.44922 135.038 4.49902V9.07666H144.217V4.49902C144.217 3.44108 143.965 2.65983 143.46 2.15527C142.956 1.65072 142.175 1.39844 141.117 1.39844H140.763V0.946777H151.419V1.39844H150.919C149.877 1.39844 149.1 1.65479 148.587 2.16748C148.075 2.67204 147.818 3.44922 147.818 4.49902V14.4233C147.818 15.465 148.079 16.2422 148.6 16.7549C149.12 17.2676 149.894 17.5239 150.919 17.5239H151.419V18H140.763V17.5239H141.117C142.167 17.5239 142.944 17.2716 143.448 16.7671C143.961 16.2544 144.217 15.4731 144.217 14.4233V9.57715H135.038V14.4233C135.038 15.465 135.298 16.2422 135.819 16.7549C136.34 17.2676 137.113 17.5239 138.138 17.5239H138.517V18H127.799V17.5239Z" fill="#010005"></path>
  <path d="M162.868 4.59668L159.523 12.2017H166.298L162.868 4.59668ZM164.162 0.60498H164.614L171.474 15.522C171.694 15.9858 171.938 16.3683 172.207 16.6694C172.483 16.9705 172.792 17.1903 173.134 17.3286C173.476 17.4588 173.879 17.5239 174.343 17.5239H174.794V18H164.895V17.5239H166.188C166.831 17.5239 167.299 17.4385 167.592 17.2676C167.893 17.0885 168.044 16.8159 168.044 16.4497C168.044 16.2218 167.983 15.9451 167.861 15.6196C167.747 15.2941 167.491 14.7041 167.092 13.8496C167.067 13.8008 167.031 13.7194 166.982 13.6055C166.933 13.4915 166.88 13.3817 166.823 13.2759L166.542 12.6533H159.316L158.767 13.9229C158.588 14.3542 158.498 14.7896 158.498 15.229C158.498 15.6034 158.6 15.9736 158.803 16.3398C159.015 16.7061 159.287 16.9827 159.621 17.1699C159.841 17.3001 160.036 17.3896 160.207 17.4385C160.386 17.4792 160.638 17.5076 160.964 17.5239V18H154.018V17.5239C154.523 17.467 154.921 17.3774 155.214 17.2554C155.515 17.1333 155.849 16.9299 156.215 16.645C157.078 15.9777 157.92 14.7204 158.742 12.873L164.162 0.60498Z" fill="#010005"></path>
  <path d="M177.466 0.946777H184.595L191.016 13.9961L197.388 0.946777H204.114V1.39844H203.492C202.442 1.39844 201.661 1.65479 201.148 2.16748C200.643 2.67204 200.391 3.44922 200.391 4.49902V14.4233C200.391 15.465 200.647 16.2422 201.16 16.7549C201.673 17.2676 202.45 17.5239 203.492 17.5239H204.114V18H193.091V17.5239H193.824C194.865 17.5239 195.639 17.2716 196.143 16.7671C196.656 16.2544 196.912 15.4731 196.912 14.4233V2.82666H196.863L189.539 18H189.124L181.714 2.87549H181.666V13.874C181.666 14.639 181.812 15.29 182.105 15.8271C182.398 16.3561 182.829 16.7671 183.399 17.0601C183.969 17.3449 184.66 17.4995 185.474 17.5239V18H177.466V17.5239H177.637C178.736 17.5239 179.598 17.2025 180.225 16.5596C180.852 15.9167 181.165 15.0459 181.165 13.9473V4.49902C181.165 3.44108 180.913 2.65983 180.408 2.15527C179.904 1.65072 179.122 1.39844 178.064 1.39844H177.466V0.946777Z" fill="#010005"></path>
  <path d="M214.123 1.39844V9.89453H217.528C219.213 9.89453 220.458 9.54867 221.264 8.85693C222.069 8.15706 222.472 7.07878 222.472 5.62207C222.472 3.92122 221.915 2.73714 220.8 2.06982C220.401 1.83382 219.933 1.66292 219.396 1.55713C218.859 1.45133 218.192 1.39844 217.394 1.39844H214.123ZM206.847 0.946777H217.028C217.63 0.946777 218.289 0.967122 219.005 1.00781C219.722 1.0485 220.364 1.1014 220.934 1.1665C221.504 1.22347 221.976 1.29264 222.35 1.37402C223.693 1.65885 224.718 2.17155 225.426 2.91211C226.142 3.64453 226.5 4.55599 226.5 5.64648C226.5 6.39518 226.33 7.0625 225.988 7.64844C225.646 8.23438 225.141 8.73079 224.474 9.1377C223.815 9.53646 223.005 9.84163 222.045 10.0532C221.085 10.2648 220.002 10.3706 218.798 10.3706H214.123V14.4233C214.123 16.5067 215.156 17.5483 217.223 17.5483H218.078V18H206.823V17.5483H207.421C209.488 17.5483 210.521 16.5067 210.521 14.4233V4.49902C210.521 2.43197 209.488 1.39844 207.421 1.39844H206.847V0.946777Z" fill="#010005"></path>
  <path d="M229.844 0.946777H249.839V9.60156L249.448 9.62598C249.245 7.46126 248.594 5.60173 247.495 4.04736C246.193 2.28141 244.541 1.39844 242.539 1.39844H241.648V14.4233C241.648 16.4904 242.677 17.5239 244.736 17.5239H247.312V18H232.419V17.5239H234.971C237.038 17.5239 238.071 16.4904 238.071 14.4233V1.39844H236.973C234.938 1.39844 233.286 2.35059 232.017 4.25488C231.39 5.19076 230.914 6.30566 230.588 7.59961C230.483 8.03906 230.377 8.70638 230.271 9.60156H229.844V0.946777Z" fill="#010005"></path>
  <path d="M264.144 0.60498C265.739 0.60498 267.196 0.861328 268.514 1.37402C269.841 1.87858 270.992 2.61914 271.969 3.5957C272.791 4.42578 273.425 5.35352 273.873 6.37891C274.321 7.39616 274.544 8.43783 274.544 9.50391C274.544 11.1071 274.089 12.5841 273.177 13.9351C272.274 15.286 271.041 16.3561 269.479 17.1455C267.924 17.9349 266.219 18.3296 264.364 18.3296C262.948 18.3296 261.613 18.1058 260.36 17.6582C259.115 17.2106 258.016 16.5799 257.064 15.7661C256.112 14.9442 255.367 13.988 254.83 12.8975C254.301 11.807 254.037 10.6676 254.037 9.47949C254.037 7.90072 254.496 6.42773 255.416 5.06055C256.336 3.69336 257.569 2.611 259.115 1.81348C260.661 1.00781 262.337 0.60498 264.144 0.60498ZM264.461 1.04443C263.721 1.04443 263.021 1.17464 262.362 1.43506C261.711 1.68734 261.161 2.04948 260.714 2.52148C260.226 3.03418 259.806 3.64453 259.457 4.35254C259.115 5.05241 258.854 5.83773 258.675 6.7085C258.504 7.57113 258.419 8.50293 258.419 9.50391C258.419 10.7572 258.557 11.9006 258.834 12.9341C259.111 13.9595 259.509 14.8465 260.03 15.5952C260.551 16.3358 261.174 16.9014 261.898 17.292C262.622 17.6826 263.428 17.8779 264.315 17.8779C265.519 17.8779 266.565 17.5361 267.452 16.8525C268.347 16.1608 269.031 15.1761 269.503 13.8984C269.983 12.6208 270.223 11.103 270.223 9.34521C270.223 8.20589 270.093 7.13981 269.833 6.14697C269.572 5.15413 269.198 4.2915 268.709 3.55908C268.221 2.81852 267.631 2.23258 266.939 1.80127C266.598 1.5734 266.203 1.3903 265.755 1.25195C265.308 1.11361 264.876 1.04443 264.461 1.04443Z" fill="#010005"></path>
  <path d="M278.718 0.946777H285.566L297.419 13.2271V5.87842C297.419 4.98324 297.264 4.20199 296.955 3.53467C296.654 2.85921 296.215 2.34652 295.637 1.99658C295.327 1.80127 295.014 1.66292 294.697 1.58154C294.388 1.50016 293.952 1.43913 293.391 1.39844V0.946777H301.838V1.39844H301.667C300.438 1.39844 299.502 1.78906 298.859 2.57031C298.216 3.35156 297.895 4.48682 297.895 5.97607V18.1709H297.492L282.771 3.04639V13.1782C282.771 14.1629 282.889 14.9523 283.125 15.5464C283.361 16.1323 283.743 16.5921 284.272 16.9258C284.703 17.1862 285.228 17.353 285.847 17.4263C286.188 17.4832 286.677 17.5239 287.312 17.5483V18H278.413V17.5483C279.324 17.4995 280.065 17.3408 280.634 17.0723C281.212 16.7956 281.635 16.3887 281.904 15.8516C282.181 15.3145 282.319 14.6471 282.319 13.8496V4.20605C282.319 3.61198 282.185 3.10742 281.916 2.69238C281.656 2.27734 281.273 1.95996 280.769 1.74023C280.264 1.51237 279.654 1.39844 278.938 1.39844H278.718V0.946777Z" fill="#010005"></path>
</svg>
