<?xml version="1.0" encoding="UTF-8"?>
<svg xmlns="http://www.w3.org/2000/svg" width="18" height="18" viewBox="0 0 18 18" fill="none">
  <g clip-path="url(#clip0_105_2875)">
    <path d="M9.05909 4.48612C6.52949 4.48612 4.48909 6.52696 4.48909 9.05713C4.48909 11.5873 6.52949 13.6282 9.05909 13.6282C11.5887 13.6282 13.6291 11.5873 13.6291 9.05713C13.6291 6.52696 11.5887 4.48612 9.05909 4.48612ZM9.05909 12.0289C7.42439 12.0289 6.088 10.6962 6.088 9.05713C6.088 7.41809 7.42042 6.08538 9.05909 6.08538C10.6978 6.08538 12.0302 7.41809 12.0302 9.05713C12.0302 10.6962 10.6938 12.0289 9.05909 12.0289ZM14.882 4.29914C14.882 4.8919 14.4047 5.36531 13.816 5.36531C13.2234 5.36531 12.7501 4.88792 12.7501 4.29914C12.7501 3.71036 13.2274 3.23296 13.816 3.23296C14.4047 3.23296 14.882 3.71036 14.882 4.29914ZM17.9087 5.38122C17.8411 3.95303 17.515 2.68794 16.4689 1.64564C15.4269 0.603336 14.1621 0.277119 12.7342 0.20551C11.2626 0.121967 6.85165 0.121967 5.38003 0.20551C3.95613 0.273141 2.69132 0.599358 1.64527 1.64166C0.599226 2.68396 0.277059 3.94905 0.205466 5.37725C0.121941 6.8492 0.121941 11.2611 0.205466 12.733C0.273081 14.1612 0.599226 15.4263 1.64527 16.4686C2.69132 17.5109 3.95215 17.8371 5.38003 17.9088C6.85165 17.9923 11.2626 17.9923 12.7342 17.9088C14.1621 17.8411 15.4269 17.5149 16.4689 16.4686C17.511 15.4263 17.8372 14.1612 17.9087 12.733C17.9923 11.2611 17.9923 6.85318 17.9087 5.38122ZM16.0076 14.3124C15.6973 15.0922 15.0967 15.6929 14.3132 16.0072C13.1399 16.4726 10.3557 16.3652 9.05909 16.3652C7.76247 16.3652 4.97433 16.4686 3.80499 16.0072C3.02542 15.6968 2.42484 15.0961 2.11063 14.3124C1.64527 13.1388 1.75266 10.354 1.75266 9.05713C1.75266 7.76022 1.64925 4.97146 2.11063 3.80186C2.42086 3.02212 3.02144 2.4214 3.80499 2.10712C4.97831 1.64166 7.76247 1.74907 9.05909 1.74907C10.3557 1.74907 13.1439 1.64564 14.3132 2.10712C15.0928 2.41742 15.6933 3.01814 16.0076 3.80186C16.4729 4.97544 16.3655 7.76022 16.3655 9.05713C16.3655 10.354 16.4729 13.1428 16.0076 14.3124Z" fill="#010005"></path>
  </g>
  <defs>
    <clipPath id="clip0_105_2875">
      <rect width="17.8286" height="17.8286" fill="white" transform="translate(0.142822 0.142853)"></rect>
    </clipPath>
  </defs>
</svg>
