<?xml version="1.0" encoding="UTF-8"?>
<svg xmlns="http://www.w3.org/2000/svg" width="215" height="28" viewBox="0 0 215 28" fill="none">
  <path d="M0 20.7365V19.7965C0.753619 19.7586 1.26925 19.5972 1.5469 19.3123C1.82455 19.0085 1.97329 18.6002 1.99312 18.0875C2.03279 17.5558 2.05262 16.9576 2.05262 16.293V3.98779C2.05262 3.608 2.06254 3.2472 2.08237 2.90539C2.1022 2.54459 2.12203 2.22177 2.14186 1.93693C1.78489 1.95592 1.42791 1.97491 1.07093 1.9939C0.713955 2.01289 0.356977 2.03188 0 2.05087V0.797558C1.1106 0.778569 2.23111 0.75958 3.36154 0.740591C4.5118 0.721601 5.66206 0.731096 6.81232 0.769074C8.73603 0.788064 10.2829 1.00644 11.453 1.42421C12.6429 1.82299 13.5156 2.40217 14.0709 3.16175C14.6262 3.90234 14.9038 4.80434 14.9038 5.86775C14.9236 6.60834 14.7749 7.36792 14.4576 8.14649C14.1601 8.90607 13.6048 9.58969 12.7917 10.1974C11.9984 10.805 10.8481 11.2608 9.3409 11.5646C9.73755 11.8305 10.0846 12.1723 10.3821 12.59C10.6796 13.0078 11.0167 13.492 11.3935 14.0427L13.4164 17.0905C13.7535 17.6033 14.0808 18.0685 14.3981 18.4863C14.7154 18.885 15.0823 19.2079 15.4988 19.4547C15.9152 19.6826 16.4309 19.7965 17.0457 19.7965V20.7365H13.2974C12.7223 20.2428 12.2364 19.7491 11.8397 19.2553C11.4629 18.7616 11.0663 18.2014 10.6498 17.5748L8.6567 14.527C8.39888 14.1282 8.1014 13.6724 7.76426 13.1597C7.44694 12.628 7.08005 12.1818 6.66358 11.821C6.34626 11.8399 6.00912 11.8494 5.65214 11.8494C5.31499 11.8494 4.97785 11.8399 4.6407 11.821V17.3469C4.6407 17.8596 4.63079 18.3059 4.61096 18.6857C4.61096 19.0465 4.59112 19.3503 4.55146 19.5972C4.78944 19.5782 5.02743 19.5687 5.26541 19.5687C5.5034 19.5497 5.74138 19.5307 5.97937 19.5117C6.21735 19.4927 6.45534 19.4832 6.69332 19.4832V20.7365H0ZM6.48509 10.767C7.57585 10.7291 8.52779 10.5582 9.3409 10.2543C10.1739 9.95049 10.8283 9.46626 11.3043 8.80163C11.7802 8.137 12.0182 7.26348 12.0182 6.18108C12.0182 5.45948 11.9092 4.83283 11.691 4.30112C11.4927 3.75042 11.1754 3.29468 10.7391 2.93388C10.3028 2.57308 9.74746 2.30722 9.07317 2.13632C8.39888 1.94642 7.6056 1.85147 6.69332 1.85147C5.95954 1.85147 5.4439 1.9939 5.14642 2.27874C4.86877 2.56358 4.71012 2.96236 4.67045 3.47508C4.65062 3.9688 4.6407 4.55748 4.6407 5.2411V10.7101C4.95802 10.7291 5.2555 10.7481 5.53315 10.767C5.83063 10.786 6.14794 10.786 6.48509 10.767Z" fill="#010005"></path>
  <path d="M25.5267 21.1923C24.1384 21.1923 22.8791 20.8884 21.7487 20.2808C20.6182 19.6541 19.7159 18.7996 19.0416 17.7172C18.3871 16.6158 18.0599 15.3625 18.0599 13.9573C18.0599 12.4571 18.3871 11.1089 19.0416 9.91251C19.696 8.71618 20.5885 7.7762 21.7189 7.09257C22.8493 6.38996 24.1186 6.03866 25.5267 6.03866C26.9149 6.03866 28.1742 6.36148 29.3047 7.00712C30.4351 7.63377 31.3375 8.4883 32.0117 9.5707C32.686 10.6531 33.0232 11.8874 33.0232 13.2737C33.0232 14.7358 32.686 16.0746 32.0117 17.2899C31.3573 18.4863 30.4648 19.4357 29.3344 20.1384C28.204 20.841 26.9347 21.1923 25.5267 21.1923ZM25.7646 20.0529C26.8157 20.0529 27.6487 19.7681 28.2635 19.1984C28.8783 18.6287 29.3146 17.8881 29.5724 16.9766C29.8501 16.0651 29.9889 15.1061 29.9889 14.0997C29.9889 13.2452 29.8996 12.4096 29.7211 11.5931C29.5625 10.7575 29.3047 10.0075 28.9477 9.34283C28.5907 8.65921 28.1247 8.11801 27.5495 7.71923C26.9942 7.32045 26.3199 7.12106 25.5267 7.12106C24.4954 7.12106 23.6525 7.4059 22.9981 7.97559C22.3436 8.54527 21.8577 9.28586 21.5404 10.1974C21.2429 11.1089 21.0942 12.0868 21.0942 13.1312C21.0942 14.3086 21.2628 15.429 21.5999 16.4924C21.9371 17.5368 22.4527 18.3913 23.1468 19.056C23.8409 19.7206 24.7135 20.0529 25.7646 20.0529Z" fill="#010005"></path>
  <path d="M35.5506 20.7365V19.882C36.1654 19.882 36.5918 19.7396 36.8298 19.4547C37.0678 19.1509 37.2066 18.7426 37.2463 18.2299C37.2859 17.6982 37.3058 17.0905 37.3058 16.4069L37.3355 9.91251C37.3355 9.60868 37.3355 9.30485 37.3355 9.00102C37.3553 8.69719 37.395 8.38386 37.4545 8.06104C37.0975 8.08003 36.7405 8.09902 36.3836 8.11801C36.0464 8.137 35.6994 8.15598 35.3424 8.17498V6.97864C36.215 6.97864 36.8694 6.94066 37.3058 6.8647C37.7619 6.78874 38.099 6.69379 38.3172 6.57986C38.5353 6.46592 38.7138 6.34249 38.8526 6.20956H39.7153C39.7352 6.34249 39.7451 6.49441 39.7451 6.66531C39.7649 6.83622 39.7848 7.02611 39.8046 7.235C39.8244 7.44388 39.8343 7.68125 39.8343 7.9471C40.2706 7.5863 40.7466 7.26348 41.2622 6.97864C41.7977 6.6938 42.353 6.46592 42.9281 6.29502C43.5231 6.12411 44.1082 6.03866 44.6833 6.03866C46.4087 6.03866 47.668 6.56087 48.4613 7.60529C49.2546 8.63072 49.6512 10.2353 49.6512 12.4191V17.7172C49.6512 18.097 49.6413 18.4388 49.6215 18.7426C49.6215 19.0275 49.5917 19.3313 49.5322 19.6541C49.8495 19.6351 50.1569 19.6256 50.4544 19.6256C50.7717 19.6066 51.089 19.5877 51.4063 19.5687V20.7365H45.3377V19.882C45.9525 19.882 46.3789 19.7396 46.6169 19.4547C46.8549 19.1509 46.9937 18.7426 47.0334 18.2299C47.073 17.6982 47.0929 17.0905 47.0929 16.4069V12.4191C47.073 10.786 46.7855 9.55171 46.2302 8.71618C45.6947 7.88064 44.8419 7.47236 43.6718 7.49135C42.9579 7.51034 42.2538 7.69074 41.5597 8.03255C40.8854 8.37436 40.3202 8.81112 39.8641 9.34283C39.8839 9.49474 39.8938 9.66565 39.8938 9.85554C39.8938 10.0454 39.8938 10.2448 39.8938 10.4537L39.8641 17.7172C39.8641 18.097 39.8542 18.4388 39.8343 18.7426C39.8343 19.0275 39.8046 19.3313 39.7451 19.6541C40.0624 19.6351 40.3698 19.6256 40.6673 19.6256C40.9846 19.6066 41.3019 19.5877 41.6192 19.5687V20.7365H35.5506Z" fill="#010005"></path>
  <path d="M62.6637 20.7365C62.6042 20.4137 62.5645 20.1289 62.5447 19.882C62.5249 19.6351 62.4951 19.3788 62.4554 19.1129C61.7812 19.7586 61.0474 20.2713 60.2541 20.6511C59.4806 21.0119 58.6576 21.1923 57.785 21.1923C56.2778 21.1923 55.1572 20.8694 54.4235 20.2238C53.6897 19.5592 53.3228 18.7521 53.3228 17.8026C53.3228 16.9291 53.6004 16.179 54.1557 15.5524C54.7309 14.9067 55.4646 14.3845 56.3571 13.9858C57.2694 13.568 58.251 13.2642 59.3021 13.0743C60.3731 12.8654 61.4044 12.7704 62.396 12.7894V11.0234C62.396 10.3588 62.3365 9.73211 62.2175 9.14344C62.0985 8.55476 61.8407 8.07053 61.444 7.69074C61.0474 7.31095 60.4127 7.11156 59.5401 7.09257C58.965 7.07359 58.37 7.17803 57.7552 7.4059C57.1603 7.63377 56.724 8.02306 56.4463 8.57376C56.605 8.72567 56.7041 8.90607 56.7438 9.11495C56.8033 9.30485 56.833 9.48525 56.833 9.65615C56.833 9.88403 56.7339 10.1499 56.5356 10.4537C56.3373 10.7386 55.9902 10.8715 55.4944 10.8525C55.0779 10.8525 54.7606 10.7196 54.5424 10.4537C54.3243 10.1689 54.2152 9.83656 54.2152 9.45677C54.2152 8.81112 54.4631 8.23194 54.9589 7.71923C55.4746 7.20651 56.1786 6.79824 57.071 6.49441C57.9635 6.19057 58.9749 6.03866 60.1053 6.03866C61.7712 6.03866 63.0008 6.46592 63.7941 7.32045C64.5874 8.15599 64.9741 9.48525 64.9543 11.3082C64.9543 12.0109 64.9543 12.723 64.9543 13.4446C64.9543 14.1472 64.9444 14.8593 64.9245 15.5809C64.9245 16.2835 64.9245 16.9956 64.9245 17.7172C64.9245 18.021 64.9146 18.3249 64.8948 18.6287C64.875 18.9325 64.8452 19.2743 64.8055 19.6541C65.1625 19.6351 65.5096 19.6161 65.8467 19.5972C66.2037 19.5782 66.5607 19.5592 66.9177 19.5402V20.7365H62.6637ZM62.396 13.7579C61.7217 13.7769 61.0077 13.8623 60.2541 14.0142C59.5203 14.1472 58.8361 14.3561 58.2015 14.6409C57.5867 14.9257 57.081 15.3055 56.6843 15.7803C56.3075 16.236 56.129 16.7962 56.1488 17.4608C56.1885 18.1634 56.4265 18.6952 56.8628 19.056C57.3189 19.3978 57.8544 19.5687 58.4692 19.5687C59.2823 19.5687 59.9864 19.4262 60.5813 19.1414C61.1961 18.8376 61.801 18.4198 62.396 17.8881C62.3761 17.6792 62.3662 17.4513 62.3662 17.2045C62.3662 16.9576 62.3662 16.7013 62.3662 16.4354C62.3662 16.3405 62.3662 16.0366 62.3662 15.5239C62.386 15.0112 62.396 14.4225 62.396 13.7579Z" fill="#010005"></path>
  <path d="M74.3484 21.1923C73.8923 21.1923 73.4262 21.1258 72.9502 20.9929C72.4743 20.8789 72.0281 20.6416 71.6116 20.2808C71.215 19.92 70.8976 19.3978 70.6596 18.7141C70.4217 18.0115 70.3027 17.0905 70.3027 15.9512L70.3622 7.69074L68.0716 7.71923V6.49441C68.5872 6.47542 69.1127 6.29501 69.6482 5.9532C70.1837 5.5924 70.6596 5.10817 71.0761 4.50051C71.5124 3.89284 71.8099 3.22821 71.9686 2.50661H72.98V6.49441H77.9777V7.60529L72.98 7.66226L72.9205 15.5809C72.9205 16.4354 72.9899 17.1665 73.1287 17.7742C73.2874 18.3628 73.5353 18.8091 73.8724 19.1129C74.2096 19.4168 74.6459 19.5687 75.1814 19.5687C75.7367 19.5687 76.2523 19.4168 76.7283 19.1129C77.2241 18.8091 77.6604 18.3913 78.0372 17.8596L78.8404 18.4863C78.4041 19.1129 77.9678 19.6066 77.5315 19.9674C77.115 20.3282 76.7084 20.5941 76.3118 20.765C75.9151 20.9549 75.5483 21.0688 75.2111 21.1068C74.874 21.1638 74.5864 21.1923 74.3484 21.1923Z" fill="#010005"></path>
  <path d="M80.2599 19.882C80.8747 19.882 81.3011 19.7396 81.5391 19.4547C81.7771 19.1509 81.9159 18.7426 81.9556 18.2299C81.9952 17.6982 82.0151 17.0905 82.0151 16.4069V9.91251C82.0151 9.60868 82.025 9.32384 82.0448 9.05799C82.0646 8.77314 82.0944 8.44083 82.134 8.06104C81.7771 8.08003 81.4201 8.09902 81.0631 8.11801C80.726 8.137 80.3789 8.15598 80.0219 8.17498V6.97864C80.8945 6.97864 81.5688 6.94066 82.0448 6.8647C82.5208 6.78874 82.8778 6.69379 83.1157 6.57986C83.3736 6.46592 83.5719 6.34249 83.7107 6.20956H84.5734V17.7172C84.5734 18.097 84.5635 18.4388 84.5436 18.7426C84.5436 19.0275 84.5139 19.3313 84.4544 19.6541C84.7717 19.6351 85.0791 19.6256 85.3766 19.6256C85.6939 19.6066 86.0112 19.5877 86.3285 19.5687V20.7365H80.2599V19.882ZM83.1455 3.38962C82.729 3.38962 82.3621 3.22821 82.0448 2.90539C81.7275 2.58257 81.5688 2.18379 81.5688 1.70905C81.5688 1.23432 81.7275 0.835538 82.0448 0.512716C82.382 0.170905 82.7588 0 83.1752 0C83.6314 0 84.0082 0.170905 84.3057 0.512716C84.623 0.835538 84.7816 1.23432 84.7816 1.70905C84.7816 2.18379 84.6131 2.58257 84.2759 2.90539C83.9586 3.22821 83.5818 3.38962 83.1455 3.38962Z" fill="#010005"></path>
  <path d="M94.9539 20.7365V19.7965C95.5488 19.7965 96.005 19.6446 96.3223 19.3408C96.6396 19.037 96.8974 18.6192 97.0957 18.0875C97.3139 17.5558 97.5618 16.9386 97.8394 16.236L103.968 0.256358H104.681L111.315 16.4639C111.474 16.8627 111.652 17.3754 111.851 18.002C112.049 18.6287 112.128 19.1604 112.089 19.5972C112.426 19.5782 112.763 19.5592 113.1 19.5402C113.437 19.5212 113.774 19.5022 114.112 19.4832V20.7365H107.299V19.7965C108.053 19.7776 108.549 19.6161 108.787 19.3123C109.025 19.0085 109.114 18.6477 109.054 18.2299C108.995 17.8121 108.896 17.4324 108.757 17.0905L107.716 14.413L99.9813 14.5839L98.9401 17.6317C98.8013 18.0875 98.6724 18.4483 98.5534 18.7141C98.4542 18.98 98.3352 19.2743 98.1964 19.5972C98.593 19.5782 98.9798 19.5592 99.3566 19.5402C99.7532 19.5212 100.14 19.5022 100.517 19.4832V20.7365H94.9539ZM100.428 13.3591H107.299L105.187 7.91862C104.969 7.32994 104.741 6.75076 104.503 6.18108C104.285 5.5924 104.067 5.00373 103.849 4.41506H103.789C103.591 4.94676 103.382 5.47847 103.164 6.01017C102.966 6.54188 102.758 7.08308 102.54 7.63377L100.428 13.3591Z" fill="#010005"></path>
  <path d="M115.063 20.7365V19.882C115.678 19.882 116.104 19.7396 116.342 19.4547C116.58 19.1509 116.719 18.7426 116.759 18.2299C116.798 17.6982 116.818 17.0905 116.818 16.4069L116.848 9.91251C116.848 9.60868 116.848 9.30485 116.848 9.00102C116.868 8.69719 116.907 8.38386 116.967 8.06104C116.61 8.08003 116.253 8.09902 115.896 8.11801C115.559 8.137 115.212 8.15598 114.855 8.17498V6.97864C115.727 6.97864 116.382 6.94066 116.818 6.8647C117.274 6.78874 117.611 6.69379 117.829 6.57986C118.048 6.46592 118.226 6.34249 118.365 6.20956H119.228C119.247 6.34249 119.257 6.49441 119.257 6.66531C119.277 6.83622 119.297 7.02611 119.317 7.235C119.337 7.44388 119.347 7.68125 119.347 7.9471C119.783 7.5863 120.259 7.26348 120.775 6.97864C121.31 6.6938 121.865 6.46592 122.44 6.29502C123.035 6.12411 123.62 6.03866 124.196 6.03866C125.921 6.03866 127.18 6.56087 127.974 7.60529C128.767 8.63072 129.163 10.2353 129.163 12.4191V17.7172C129.163 18.097 129.154 18.4388 129.134 18.7426C129.134 19.0275 129.104 19.3313 129.044 19.6541C129.362 19.6351 129.669 19.6256 129.967 19.6256C130.284 19.6066 130.601 19.5877 130.919 19.5687V20.7365H124.85V19.882C125.465 19.882 125.891 19.7396 126.129 19.4547C126.367 19.1509 126.506 18.7426 126.546 18.2299C126.585 17.6982 126.605 17.0905 126.605 16.4069V12.4191C126.585 10.786 126.298 9.55171 125.742 8.71618C125.207 7.88064 124.354 7.47236 123.184 7.49135C122.47 7.51034 121.766 7.69074 121.072 8.03255C120.398 8.37436 119.832 8.81112 119.376 9.34283C119.396 9.49474 119.406 9.66565 119.406 9.85554C119.406 10.0454 119.406 10.2448 119.406 10.4537L119.376 17.7172C119.376 18.097 119.366 18.4388 119.347 18.7426C119.347 19.0275 119.317 19.3313 119.257 19.6541C119.575 19.6351 119.882 19.6256 120.18 19.6256C120.497 19.6066 120.814 19.5877 121.131 19.5687V20.7365H115.063Z" fill="#010005"></path>
  <path d="M138.464 21.1923C138.008 21.1923 137.542 21.1258 137.066 20.9929C136.59 20.8789 136.143 20.6416 135.727 20.2808C135.33 19.92 135.013 19.3978 134.775 18.7141C134.537 18.0115 134.418 17.0905 134.418 15.9512L134.477 7.69074L132.187 7.71923V6.49441C132.702 6.47542 133.228 6.29501 133.764 5.9532C134.299 5.5924 134.775 5.10817 135.191 4.50051C135.628 3.89284 135.925 3.22821 136.084 2.50661H137.095V6.49441H142.093V7.60529L137.095 7.66226L137.036 15.5809C137.036 16.4354 137.105 17.1665 137.244 17.7742C137.403 18.3628 137.651 18.8091 137.988 19.1129C138.325 19.4168 138.761 19.5687 139.297 19.5687C139.852 19.5687 140.368 19.4168 140.844 19.1129C141.339 18.8091 141.776 18.3913 142.152 17.8596L142.956 18.4863C142.519 19.1129 142.083 19.6066 141.647 19.9674C141.23 20.3282 140.824 20.5941 140.427 20.765C140.03 20.9549 139.664 21.0688 139.326 21.1068C138.989 21.1638 138.702 21.1923 138.464 21.1923Z" fill="#010005"></path>
  <path d="M144.375 19.882C144.99 19.882 145.416 19.7396 145.654 19.4547C145.892 19.1509 146.031 18.7426 146.071 18.2299C146.111 17.6982 146.13 17.0905 146.13 16.4069V9.91251C146.13 9.60868 146.14 9.32384 146.16 9.05799C146.18 8.77314 146.21 8.44083 146.249 8.06104C145.892 8.08003 145.535 8.09902 145.178 8.11801C144.841 8.137 144.494 8.15598 144.137 8.17498V6.97864C145.01 6.97864 145.684 6.94066 146.16 6.8647C146.636 6.78874 146.993 6.69379 147.231 6.57986C147.489 6.46592 147.687 6.34249 147.826 6.20956H148.689V17.7172C148.689 18.097 148.679 18.4388 148.659 18.7426C148.659 19.0275 148.629 19.3313 148.57 19.6541C148.887 19.6351 149.194 19.6256 149.492 19.6256C149.809 19.6066 150.127 19.5877 150.444 19.5687V20.7365H144.375V19.882ZM147.261 3.38962C146.844 3.38962 146.477 3.22821 146.16 2.90539C145.843 2.58257 145.684 2.18379 145.684 1.70905C145.684 1.23432 145.843 0.835538 146.16 0.512716C146.497 0.170905 146.874 0 147.291 0C147.747 0 148.123 0.170905 148.421 0.512716C148.738 0.835538 148.897 1.23432 148.897 1.70905C148.897 2.18379 148.728 2.58257 148.391 2.90539C148.074 3.22821 147.697 3.38962 147.261 3.38962Z" fill="#010005"></path>
  <path d="M162.053 28V27.1455C162.668 27.1455 163.094 26.9936 163.332 26.6897C163.57 26.4049 163.709 25.9966 163.749 25.4649C163.788 24.9522 163.808 24.354 163.808 23.6704V19.3978C163.293 19.9674 162.658 20.4137 161.904 20.7365C161.151 21.0404 160.298 21.1923 159.346 21.1923C158.116 21.1923 156.996 20.8979 155.984 20.3093C154.973 19.7016 154.17 18.8566 153.575 17.7742C152.98 16.6728 152.682 15.391 152.682 13.9288C152.682 12.3337 153.02 10.9474 153.694 9.77009C154.388 8.59274 155.31 7.68125 156.46 7.03561C157.63 6.37097 158.92 6.03866 160.328 6.03866C161.161 6.03866 161.914 6.1431 162.588 6.35198C163.283 6.56087 163.878 6.66531 164.373 6.66531C164.592 6.66531 164.79 6.63683 164.968 6.57986C165.167 6.5039 165.345 6.38047 165.504 6.20956H166.337L166.367 24.9807C166.367 25.3605 166.357 25.6928 166.337 25.9776C166.337 26.2815 166.307 26.5948 166.248 26.9176C166.565 26.8986 166.872 26.8796 167.17 26.8606C167.487 26.8606 167.804 26.8511 168.122 26.8321V28H162.053ZM160.417 19.7965C161.071 19.7965 161.696 19.6256 162.291 19.2838C162.906 18.942 163.412 18.5053 163.808 17.9736V10.5107C163.808 9.7511 163.699 9.12445 163.481 8.63072C163.263 8.11801 162.906 7.73822 162.41 7.49135C161.914 7.2255 161.24 7.09257 160.387 7.09257C159.435 7.09257 158.612 7.34893 157.918 7.86165C157.224 8.37436 156.688 9.09597 156.312 10.0265C155.935 10.9379 155.746 12.0109 155.746 13.2452C155.746 14.4605 155.925 15.5619 156.282 16.5493C156.659 17.5368 157.194 18.3249 157.888 18.9135C158.602 19.5022 159.445 19.7965 160.417 19.7965Z" fill="#010005"></path>
  <path d="M176.159 21.1923C175.088 21.1923 174.185 21.0024 173.452 20.6226C172.738 20.2428 172.192 19.5972 171.816 18.6857C171.459 17.7742 171.28 16.5398 171.28 14.9827V9.91251C171.28 9.60868 171.28 9.30485 171.28 9.00102C171.3 8.69719 171.34 8.38386 171.399 8.06104C171.062 8.08003 170.715 8.09902 170.358 8.11801C170.021 8.11801 169.684 8.1275 169.346 8.14649V6.97864H170.269C171.121 6.97864 171.736 6.90268 172.113 6.75076C172.51 6.57986 172.817 6.39946 173.035 6.20956H173.898V14.8973C173.898 16.5303 174.136 17.7552 174.612 18.5717C175.108 19.3693 175.941 19.7586 177.111 19.7396C177.864 19.7206 178.578 19.5022 179.253 19.0844C179.947 18.6477 180.502 18.135 180.918 17.5463V10.2258C180.918 9.77009 180.928 9.38081 180.948 9.05799C180.968 8.71618 181.008 8.38386 181.067 8.06104C180.71 8.08003 180.353 8.09902 179.996 8.11801C179.639 8.11801 179.282 8.1275 178.925 8.14649V6.97864H179.848C180.7 6.97864 181.315 6.90268 181.692 6.75076C182.089 6.57986 182.396 6.39946 182.614 6.20956H183.477L183.447 16.9766C183.447 17.2804 183.437 17.7077 183.417 18.2584C183.397 18.8091 183.368 19.2743 183.328 19.6541C183.685 19.6351 184.042 19.6161 184.399 19.5972C184.756 19.5782 185.113 19.5592 185.47 19.5402V20.7365H181.216C181.156 20.4137 181.107 20.1099 181.067 19.825C181.047 19.5402 181.028 19.2743 181.008 19.0275C180.393 19.6161 179.649 20.1289 178.777 20.5656C177.904 20.9834 177.031 21.1923 176.159 21.1923Z" fill="#010005"></path>
  <path d="M194.831 21.1923C193.463 21.1923 192.223 20.8884 191.113 20.2808C190.022 19.6541 189.159 18.7806 188.524 17.6602C187.89 16.5209 187.572 15.1821 187.572 13.6439C187.572 12.3147 187.88 11.0709 188.495 9.91251C189.129 8.75415 190.012 7.82367 191.142 7.12106C192.273 6.39946 193.582 6.03866 195.069 6.03866C195.902 6.03866 196.675 6.17158 197.389 6.43744C198.123 6.6843 198.768 7.07359 199.323 7.60529C199.878 8.11801 200.315 8.77314 200.632 9.5707C200.949 10.3493 201.108 11.2703 201.108 12.3337L190.637 12.5046C190.637 13.9478 190.795 15.2201 191.113 16.3215C191.45 17.4039 191.985 18.2489 192.719 18.8566C193.453 19.4452 194.395 19.7396 195.545 19.7396C196.16 19.7396 196.784 19.6351 197.419 19.4262C198.074 19.2174 198.678 18.9325 199.234 18.5717C199.789 18.2109 200.235 17.8121 200.572 17.3754L201.286 17.9451C200.751 18.7426 200.106 19.3788 199.353 19.8535C198.599 20.3282 197.826 20.6701 197.032 20.8789C196.239 21.0878 195.505 21.1923 194.831 21.1923ZM190.726 11.3082H198.312C198.312 10.6246 198.202 9.96948 197.984 9.34283C197.786 8.69719 197.449 8.17498 196.973 7.7762C196.497 7.35843 195.872 7.14954 195.099 7.14954C193.948 7.14954 192.987 7.48186 192.213 8.14649C191.46 8.79213 190.964 9.84605 190.726 11.3082Z" fill="#010005"></path>
  <path d="M209.854 21.1923C208.862 21.1923 207.979 21.0593 207.206 20.7935C206.433 20.5466 205.798 20.2618 205.302 19.939L205.421 20.9359H204.172L203.993 16.0366H204.915C204.955 16.8152 205.183 17.5178 205.6 18.1445C206.016 18.7521 206.552 19.2269 207.206 19.5687C207.86 19.9105 208.564 20.0814 209.318 20.0814C209.834 20.0814 210.339 20.0054 210.835 19.8535C211.331 19.6826 211.748 19.4357 212.085 19.1129C212.422 18.7711 212.59 18.3438 212.59 17.8311C212.59 17.2994 212.422 16.8627 212.085 16.5209C211.767 16.1601 211.341 15.8467 210.806 15.5809C210.27 15.315 209.695 15.0682 209.08 14.8403C208.485 14.6124 207.89 14.375 207.295 14.1282C206.7 13.8813 206.145 13.587 205.629 13.2452C205.134 12.9034 204.737 12.4856 204.439 11.9919C204.142 11.4981 203.993 10.8905 203.993 10.1689C203.993 9.77009 204.073 9.33333 204.231 8.8586C204.39 8.38386 204.658 7.93761 205.034 7.51984C205.411 7.08308 205.927 6.73177 206.581 6.46592C207.236 6.18108 208.069 6.03866 209.08 6.03866C209.616 6.03866 210.211 6.12411 210.865 6.29502C211.519 6.46592 212.154 6.78874 212.769 7.26348L212.709 6.18108H213.959V11.1658H213.007C212.967 10.5012 212.809 9.86504 212.531 9.25738C212.253 8.63072 211.847 8.11801 211.311 7.71923C210.776 7.30146 210.082 7.09257 209.229 7.09257C208.317 7.09257 207.603 7.31095 207.087 7.74771C206.571 8.18447 206.314 8.68769 206.314 9.25738C206.314 9.84605 206.502 10.3398 206.879 10.7386C207.275 11.1183 207.781 11.4507 208.396 11.7355C209.011 12.0203 209.665 12.2957 210.359 12.5615C211.113 12.8654 211.847 13.1977 212.561 13.5585C213.275 13.9193 213.86 14.375 214.316 14.9257C214.772 15.4574 215 16.1506 215 17.0051C215 17.9546 214.742 18.7426 214.227 19.3693C213.731 19.9959 213.086 20.4517 212.293 20.7365C211.519 21.0404 210.706 21.1923 209.854 21.1923Z" fill="#010005"></path>
</svg>
