<?xml version="1.0" encoding="UTF-8"?>
<svg xmlns="http://www.w3.org/2000/svg" width="19" height="25" viewBox="0 0 19 25" fill="none">
  <path fill-rule="evenodd" clip-rule="evenodd" d="M9.74884 0.799995C3.36262 0.799995 0.142822 5.3785 0.142822 9.19649C0.142822 11.5081 1.01816 13.5651 2.89534 14.3308C3.20321 14.4566 3.4789 14.3352 3.56811 13.9944C3.63027 13.7582 3.77726 13.1629 3.84234 12.915C3.93229 12.5779 3.89719 12.4602 3.64855 12.1662C3.10741 11.5278 2.76152 10.7015 2.76152 9.53069C2.76152 6.13318 5.30343 3.09255 9.37956 3.09255C12.9891 3.09255 14.9723 5.29879 14.9723 8.24363C14.9723 12.1194 13.2568 15.3904 10.7112 15.3904C9.30497 15.3904 8.25266 14.2269 8.58978 12.801C8.99344 11.0985 9.77664 9.26012 9.77664 8.03158C9.77664 6.93174 9.18577 6.01399 7.96381 6.01399C6.52612 6.01399 5.37144 7.50066 5.37144 9.49266C5.37144 10.7614 5.79996 11.6199 5.79996 11.6199C5.79996 11.6199 4.32864 17.8526 4.07123 18.9444C3.55788 21.1185 3.99445 23.7832 4.03101 24.0523C4.05295 24.2118 4.2577 24.2498 4.35058 24.1284C4.48294 23.9558 6.19485 21.8417 6.77695 19.7298C6.94148 19.1323 7.72248 16.0354 7.72248 16.0354C8.18904 16.9261 9.55433 17.7107 11.0059 17.7107C15.327 17.7107 18.258 13.7714 18.258 8.49813C18.258 4.51269 14.8817 0.799995 9.74884 0.799995Z" fill="#010005"></path>
</svg>
