<?xml version="1.0" encoding="UTF-8"?>
<svg xmlns="http://www.w3.org/2000/svg" width="21" height="18" viewBox="0 0 21 18" fill="none">
  <path d="M18.024 4.47176C18.0368 4.66676 18.0368 4.86179 18.0368 5.05678C18.0368 11.0042 13.9006 17.8571 6.34098 17.8571C4.012 17.8571 1.84848 17.1189 0.0285645 15.8375C0.359469 15.8793 0.677603 15.8932 1.02124 15.8932C2.94293 15.8932 4.71196 15.1829 6.12463 13.9711C4.31744 13.9293 2.80296 12.6339 2.28116 10.8511C2.53572 10.8928 2.79023 10.9207 3.05752 10.9207C3.42658 10.9207 3.79568 10.865 4.13927 10.7675C2.25574 10.3496 0.843036 8.53891 0.843036 6.35213V6.29644C1.39026 6.63072 2.02665 6.83965 2.70111 6.86747C1.59389 6.0596 0.868499 4.68069 0.868499 3.12068C0.868499 2.28498 1.07209 1.51891 1.42846 0.850333C3.452 3.58033 6.49369 5.36316 9.90439 5.55819C9.84077 5.2239 9.80258 4.87572 9.80258 4.5275C9.80258 2.04819 11.6352 0.0285683 13.9133 0.0285683C15.0969 0.0285683 16.1659 0.571781 16.9168 1.44928C17.8458 1.25429 18.7367 0.878201 19.5257 0.362856C19.2203 1.40752 18.5712 2.28502 17.7186 2.84213C18.5458 2.74467 19.3476 2.4939 20.0857 2.14573C19.5258 3.03712 18.8258 3.83101 18.024 4.47176Z" fill="#010005"></path>
</svg>
